<svg width="571" height="56" viewBox="0 0 571 56" fill="none" xmlns="http://www.w3.org/2000/svg">
<g clip-path="url(#clip0_736_3115)">
<path d="M250.212 25.8235L245.992 27.9352H241.69V25.8235H250.212ZM247.582 37.9857H245.05V27.967C245.041 27.628 245.123 27.2926 245.289 26.9945C245.454 26.6963 245.696 26.4459 245.992 26.2681C246.412 25.9724 246.919 25.8166 247.436 25.8235H251.17V27.9352H247.582V37.9857ZM255.196 33.0319V35.874H261.689V37.9857H255.082C254.715 38.0001 254.349 37.9283 254.016 37.7764C253.683 37.6245 253.392 37.3968 253.167 37.1124C252.865 36.7545 252.699 36.306 252.696 35.8422V27.9035C252.69 27.5632 252.776 27.2274 252.944 26.9295C253.112 26.6315 253.357 26.3816 253.654 26.2046C254.076 25.9316 254.577 25.798 255.082 25.8235H261.771V27.9352H255.277V30.9202H261.235V33.0319H255.196ZM267.225 35.874H273.183V37.9857H267.079C266.707 38.0022 266.337 37.9298 266.001 37.7749C265.664 37.6199 265.371 37.3871 265.147 37.0965C264.862 36.7381 264.708 36.2965 264.709 35.8422V25.8235H267.225V35.874ZM245.992 44.8765H247.518C248.489 44.879 249.448 45.0904 250.326 45.4957C250.651 45.648 250.952 45.8459 251.219 46.0832L249.238 47.5757C248.873 47.1432 248.348 46.8693 247.777 46.8135H245.992C245.666 46.8146 245.346 46.8968 245.062 47.0524C244.778 47.208 244.539 47.4318 244.368 47.7027C244.088 48.1169 243.941 48.6034 243.946 49.0999V51.7356C243.933 52.0815 244 52.4259 244.144 52.7424C244.287 53.0588 244.503 53.339 244.774 53.5615C245.134 53.8565 245.587 54.0194 246.056 54.0219H248.995V50.3384H251.3V53.8949C251.31 54.2099 251.236 54.5221 251.085 54.8006C250.935 55.0791 250.712 55.3142 250.44 55.4827C250.056 55.7341 249.603 55.8669 249.141 55.8637H246.056C245.467 55.8739 244.881 55.765 244.337 55.5437C243.792 55.3224 243.3 54.9935 242.891 54.5776C242.492 54.1993 242.176 53.7448 241.964 53.2422C241.752 52.7397 241.647 52.1998 241.657 51.6562V49.0046C241.645 48.4355 241.757 47.8703 241.987 47.3472C242.216 46.8241 242.558 46.3552 242.988 45.972C243.806 45.2392 244.883 44.8463 245.992 44.8765ZM258.719 55.9907H257.193C256.59 56.0101 255.989 55.9057 255.43 55.6842C254.871 55.4626 254.365 55.129 253.946 54.7047C253.547 54.3263 253.231 53.8718 253.019 53.3692C252.807 52.8667 252.702 52.3268 252.712 51.7832V48.8459C252.704 48.2835 252.817 47.7258 253.044 47.2089C253.27 46.692 253.605 46.2273 254.027 45.845C254.854 45.0654 255.963 44.6373 257.112 44.6542H258.638C259.223 44.6451 259.805 44.753 260.346 44.9714C260.888 45.1898 261.378 45.5141 261.787 45.9244C262.215 46.2898 262.562 46.738 262.805 47.2407C263.048 47.7435 263.182 48.29 263.199 48.8459V51.7832C263.209 52.3482 263.097 52.909 262.871 53.4288C262.644 53.9486 262.308 54.4158 261.884 54.7999C261.055 55.5766 259.948 56.0042 258.8 55.9907H258.719ZM257.274 54.0696H258.8C259.127 54.0653 259.447 53.9801 259.731 53.8218C260.015 53.6635 260.253 53.4374 260.423 53.1645C260.713 52.7601 260.866 52.2771 260.862 51.7832V48.8459C260.872 48.4972 260.8 48.1508 260.651 47.8339C260.502 47.5171 260.279 47.2384 260.001 47.02C259.659 46.7291 259.22 46.5709 258.767 46.5754H257.241C256.915 46.5718 256.593 46.652 256.308 46.8081C256.024 46.9641 255.786 47.1904 255.618 47.4645C255.316 47.8639 255.156 48.3492 255.164 48.8459V51.7832C255.15 52.1308 255.219 52.4768 255.365 52.7937C255.512 53.1106 255.732 53.3898 256.008 53.6091C256.363 53.9007 256.81 54.0633 257.274 54.0696ZM277.712 33.0319V35.874H284.205V37.9857H277.598C277.229 38 276.861 37.9283 276.525 37.7765C276.189 37.6247 275.895 37.3971 275.667 37.1124C275.37 36.753 275.209 36.3042 275.212 35.8422V27.9035C275.203 27.5626 275.287 27.2256 275.456 26.9271C275.624 26.6285 275.87 26.3791 276.17 26.2046C276.583 25.907 277.085 25.7508 277.598 25.76H284.173V27.8717H277.679V30.8567H283.621V32.9684L277.712 33.0319ZM289.173 30.4597V33.3653C289.161 33.7457 289.238 34.1238 289.398 34.4706C289.559 34.8174 289.798 35.1236 290.098 35.3659C290.485 35.6956 290.981 35.8762 291.494 35.874H293.118C293.438 35.8808 293.756 35.8254 294.055 35.7109C294.353 35.5965 294.625 35.4252 294.855 35.2071L295.017 35.0324L297.208 36.6202C296.391 37.2741 295.4 37.6871 294.351 37.811C293.946 37.8971 293.532 37.9397 293.118 37.938H291.494C290.848 37.9499 290.207 37.832 289.609 37.5917C289.012 37.3513 288.471 36.9937 288.02 36.5408C287.588 36.1274 287.244 35.6334 287.01 35.088C286.776 34.5426 286.656 33.9568 286.657 33.3653V30.4597C286.644 29.8381 286.766 29.221 287.015 28.649C287.264 28.077 287.635 27.5632 288.101 27.1413C289.015 26.2884 290.231 25.8159 291.494 25.8235H293.118C294.192 25.8259 295.251 26.0647 296.218 26.5221C296.581 26.6809 296.915 26.8953 297.208 27.1572L295.017 28.745C294.817 28.5045 294.571 28.3049 294.293 28.1578C294.014 28.0106 293.709 27.9188 293.394 27.8876H291.413C291.047 27.8846 290.686 27.9736 290.365 28.1459C290.044 28.3182 289.773 28.5682 289.579 28.872C289.246 29.3362 289.075 29.893 289.092 30.4597H289.173ZM305.082 38.1444H303.458C302.812 38.1563 302.171 38.0384 301.573 37.7981C300.976 37.5577 300.435 37.2001 299.984 36.7472C299.552 36.3338 299.208 35.8398 298.974 35.2944C298.74 34.749 298.62 34.1633 298.621 33.5717V30.3962C298.614 29.7777 298.738 29.1645 298.987 28.5959C299.236 28.0272 299.603 27.5156 300.066 27.0937C300.979 26.2408 302.196 25.7683 303.458 25.7759H305.082C305.729 25.7661 306.371 25.8865 306.969 26.1295C307.566 26.3726 308.107 26.7332 308.556 27.189C308.991 27.6007 309.336 28.0944 309.57 28.6402C309.804 29.186 309.923 29.7725 309.919 30.3645V33.54C309.929 34.1611 309.805 34.7773 309.557 35.3489C309.308 35.9205 308.939 36.4347 308.475 36.8584C307.559 37.7055 306.342 38.1722 305.082 38.1603V38.1444ZM303.458 36.0486H305.082C305.446 36.0504 305.804 35.9608 306.122 35.7884C306.44 35.6161 306.708 35.3667 306.9 35.0642C307.234 34.6005 307.405 34.0433 307.387 33.4765V30.301C307.402 29.9162 307.325 29.5334 307.161 29.1832C306.998 28.833 306.753 28.5252 306.445 28.2845C306.063 27.9701 305.581 27.796 305.082 27.7923H303.458C303.095 27.7906 302.736 27.8801 302.418 28.0525C302.1 28.2249 301.832 28.4742 301.64 28.7767C301.295 29.2358 301.118 29.795 301.137 30.3645V33.54C301.122 33.9207 301.198 34.2996 301.359 34.6468C301.519 34.9939 301.76 35.2999 302.062 35.5405C302.449 35.8702 302.945 36.0509 303.458 36.0486ZM323.409 28.348L320.601 36.2074H317.939L315.147 28.348L314.205 37.9857H311.494L312.647 27.8558C312.674 27.4509 312.812 27.0605 313.046 26.7254C313.28 26.3903 313.602 26.1228 313.978 25.9505C314.291 25.8185 314.627 25.7483 314.968 25.7441C315.309 25.7272 315.648 25.7973 315.953 25.9477C316.257 26.098 316.517 26.3234 316.705 26.6015C316.805 26.739 316.887 26.8884 316.949 27.0461L319.27 33.7622L321.64 27.0461C321.751 26.7323 321.944 26.4526 322.201 26.2352C322.457 26.0178 322.768 25.8703 323.101 25.8076C323.274 25.7931 323.448 25.7931 323.621 25.8076C323.982 25.7934 324.341 25.8689 324.665 26.0272C324.989 26.1854 325.266 26.4213 325.471 26.7126C325.73 27.0695 325.892 27.4846 325.942 27.9193L327.095 38.0492H324.4L323.409 28.348ZM340.439 28.348L337.646 36.2074H334.984L332.176 28.348L331.218 37.9857H328.523L329.676 27.8558C329.703 27.453 329.84 27.0644 330.07 26.7298C330.301 26.3951 330.619 26.1263 330.991 25.9505C331.309 25.8184 331.651 25.7483 331.997 25.7441C332.338 25.7288 332.676 25.7996 332.981 25.9498C333.285 26.1 333.544 26.3245 333.734 26.6015C333.834 26.739 333.916 26.8884 333.978 27.0461L336.25 33.7622L338.588 27.1096C338.697 26.795 338.89 26.5145 339.147 26.2968C339.404 26.0792 339.715 25.9323 340.049 25.8711C340.222 25.8556 340.396 25.8556 340.568 25.8711C340.929 25.8598 341.288 25.9367 341.611 26.0947C341.934 26.2527 342.212 26.4869 342.419 26.7761C342.678 27.133 342.84 27.5482 342.89 27.9828L344.042 38.1127H341.331L340.439 28.348ZM345.99 25.8235H348.523V33.3653C348.508 33.7391 348.58 34.1114 348.731 34.4548C348.883 34.7982 349.111 35.104 349.399 35.35C349.778 35.6705 350.263 35.8455 350.763 35.8422H352.127C352.489 35.8472 352.847 35.7606 353.166 35.591C353.484 35.4213 353.752 35.1743 353.945 34.8737C354.29 34.4146 354.467 33.8554 354.448 33.2859V25.8235H356.964V33.3653C356.974 33.9879 356.849 34.6055 356.597 35.1774C356.345 35.7493 355.972 36.2627 355.503 36.6837C355.055 37.107 354.527 37.4399 353.947 37.6633C353.368 37.8867 352.749 37.9962 352.127 37.9857H350.763C350.117 37.9966 349.476 37.8782 348.879 37.638C348.281 37.3977 347.74 37.0405 347.289 36.5884C346.857 36.175 346.513 35.681 346.279 35.1356C346.045 34.5902 345.924 34.0045 345.925 33.4129L345.99 25.8235ZM361.737 25.8235C362.228 25.8471 362.701 26.0098 363.098 26.2917C363.496 26.5736 363.801 26.9626 363.977 27.4112L364.253 27.9828L367.76 36.0168V25.8235H370.341V35.9216C370.342 36.2644 370.249 36.6013 370.072 36.8973C369.895 37.1932 369.64 37.4374 369.334 37.6046C368.887 37.91 368.354 38.071 367.808 38.065C367.318 38.0394 366.846 37.876 366.449 37.5943C366.051 37.3127 365.746 36.9248 365.568 36.4773L365.292 35.8898L361.786 27.8558V37.9539H359.269V27.8876C359.272 27.5454 359.366 27.2098 359.543 26.9144C359.719 26.6191 359.972 26.3743 360.276 26.2046C360.726 25.9056 361.258 25.7452 361.802 25.7441L361.737 25.8235ZM372.743 25.8235H375.26V37.9857H372.743V25.8235ZM379.659 30.4597V33.3653C379.647 33.7457 379.724 34.1238 379.884 34.4706C380.045 34.8174 380.284 35.1236 380.584 35.3659C380.972 35.6931 381.468 35.8733 381.98 35.874H383.604C383.921 35.8814 384.238 35.8262 384.533 35.7116C384.829 35.597 385.098 35.4255 385.324 35.2071L385.503 35.0324L387.678 36.6202C386.867 37.2744 385.881 37.6877 384.837 37.811C384.432 37.8963 384.018 37.9389 383.604 37.938H381.98C381.334 37.9489 380.693 37.8306 380.096 37.5903C379.498 37.3501 378.957 36.9929 378.506 36.5408C378.074 36.1274 377.73 35.6334 377.496 35.088C377.262 34.5426 377.142 33.9568 377.143 33.3653V30.4597C377.133 29.8371 377.258 29.2195 377.51 28.6476C377.762 28.0757 378.135 27.5624 378.604 27.1413C379.506 26.2821 380.721 25.8081 381.98 25.8235H383.604C384.677 25.8281 385.737 26.0667 386.704 26.5221C387.062 26.6807 387.391 26.8952 387.678 27.1572L385.503 28.745C385.303 28.5045 385.057 28.3049 384.779 28.1578C384.5 28.0106 384.195 27.9188 383.88 27.8876H381.899C381.535 27.8858 381.177 27.9754 380.859 28.1478C380.54 28.3201 380.273 28.5695 380.081 28.872C379.743 29.3348 379.567 29.8914 379.578 30.4597H379.659ZM397.581 36.382H391.331L390.974 34.2545H396.818L394.691 28.2845L391.185 37.9857H388.49L392.159 27.8082C392.689 26.3898 393.533 25.6753 394.691 25.6647C395.827 25.6647 396.655 26.3951 397.191 27.8082L400.876 37.9857H398.181L397.581 36.382ZM407.954 25.8235L404.334 27.9352H400.032V25.8235H407.954ZM405.925 37.9857H403.392V27.967C403.387 27.6267 403.472 27.291 403.64 26.993C403.808 26.695 404.053 26.4451 404.35 26.2681C404.765 25.9726 405.266 25.8166 405.779 25.8235H409.512V27.9352H405.925V37.9857ZM411.331 25.8235H413.847V37.9857H411.331V25.8235ZM422.288 38.1444H420.665C420.019 38.1563 419.377 38.0384 418.78 37.7981C418.182 37.5577 417.641 37.2001 417.191 36.7472C416.758 36.3338 416.415 35.8398 416.181 35.2944C415.946 34.749 415.826 34.1633 415.827 33.5717V30.3962C415.816 29.7772 415.939 29.1628 416.188 28.5935C416.437 28.0243 416.806 27.5131 417.272 27.0937C418.167 26.2001 419.386 25.6868 420.665 25.6647H422.288C422.935 25.654 423.578 25.7739 424.176 26.0171C424.774 26.2602 425.314 26.6213 425.762 27.0778C426.201 27.4871 426.55 27.98 426.788 28.5261C427.025 29.0722 427.146 29.66 427.142 30.2533V33.4288C427.152 34.0514 427.026 34.669 426.775 35.2409C426.523 35.8128 426.15 36.3262 425.681 36.7472C425.231 37.1717 424.699 37.5052 424.117 37.7286C423.535 37.952 422.913 38.061 422.288 38.0492V38.1444ZM420.665 35.9375H422.288C422.655 35.9419 423.016 35.8537 423.338 35.6812C423.659 35.5087 423.93 35.2579 424.123 34.9531C424.452 34.4879 424.617 33.9305 424.593 33.3653V30.1898C424.608 29.8067 424.532 29.4255 424.372 29.0758C424.211 28.7261 423.97 28.4173 423.668 28.1734C423.28 27.8589 422.792 27.6851 422.288 27.6812H420.665C420.299 27.6782 419.938 27.7672 419.616 27.9395C419.295 28.1118 419.025 28.3618 418.83 28.6656C418.497 29.1293 418.326 29.6865 418.343 30.2533V33.4288C418.329 33.8096 418.405 34.1885 418.565 34.5356C418.726 34.8828 418.967 35.1887 419.269 35.4294C419.656 35.7591 420.152 35.9397 420.665 35.9375ZM431.671 25.8235C432.159 25.8501 432.629 26.0142 433.023 26.2959C433.418 26.5776 433.721 26.965 433.895 27.4112L434.187 27.9828L437.694 36.0168V25.8235H440.145V35.9216C440.141 36.2634 440.046 36.5984 439.87 36.8935C439.693 37.1886 439.441 37.4337 439.139 37.6046C438.692 37.91 438.158 38.071 437.613 38.065C437.123 38.0394 436.651 37.876 436.253 37.5943C435.856 37.3127 435.55 36.9248 435.372 36.4773C435.275 36.3026 435.194 36.1121 435.097 35.8898L431.574 27.8558V37.9539H429.058V27.8876C429.063 27.546 429.159 27.2117 429.335 26.9168C429.511 26.622 429.762 26.3767 430.064 26.2046C430.52 25.9052 431.057 25.745 431.606 25.7441L431.671 25.8235ZM442.158 29.3007C442.165 28.8035 442.298 28.3158 442.544 27.8809C442.791 27.446 443.143 27.0774 443.57 26.8079C444.515 26.1448 445.655 25.7994 446.817 25.8235H448.441C449.473 25.8285 450.49 26.0676 451.411 26.5221C451.756 26.6942 452.078 26.9075 452.369 27.1572L450.161 28.745C449.989 28.5069 449.766 28.3073 449.509 28.1595C449.251 28.0117 448.965 27.919 448.668 27.8876H446.768C446.426 27.8651 446.082 27.9144 445.76 28.0321C445.438 28.1499 445.145 28.3333 444.902 28.5703C444.732 28.7601 444.635 29.0012 444.626 29.253C444.626 29.6659 445.08 30.031 445.989 30.3327L447.434 30.7296C448.635 30.9828 449.798 31.3885 450.892 31.9363C451.371 32.1784 451.774 32.5419 452.059 32.9889C452.345 33.4359 452.502 33.9498 452.515 34.4767C452.503 34.9762 452.363 35.4647 452.108 35.8974C451.852 36.3302 451.49 36.6933 451.054 36.9536C450.057 37.6227 448.87 37.9671 447.661 37.938H446.038C444.965 37.9395 443.906 37.7062 442.937 37.2553C442.583 37.0909 442.255 36.877 441.963 36.6202L444.122 35.0324C444.324 35.2684 444.571 35.4629 444.849 35.6047C445.128 35.7464 445.433 35.8325 445.746 35.8581H447.71C448.076 35.8879 448.444 35.8426 448.79 35.725C449.137 35.6074 449.455 35.4202 449.723 35.1753C449.907 34.9982 450.017 34.7605 450.031 34.5085C450.031 34.0322 449.561 33.6511 448.652 33.3336C448.522 33.3336 447.726 33.0636 446.265 32.6826C445.005 32.4449 443.826 31.8986 442.84 31.0948C442.366 30.6077 442.11 29.9568 442.126 29.2848L442.158 29.3007ZM467.629 36.382H461.444L461.249 34.2545H466.849L464.707 28.2845L461.249 37.9857H458.554L462.223 27.8082C462.759 26.3951 463.603 25.6806 464.739 25.6647C465.875 25.6488 466.72 26.3951 467.239 27.8082L470.989 37.9857H468.278L467.629 36.382ZM474.853 25.8235C475.343 25.8471 475.816 26.0098 476.214 26.2917C476.612 26.5736 476.917 26.9626 477.093 27.4112L477.369 27.9828L480.875 36.0168V25.8235H483.408V35.9216C483.404 36.2634 483.309 36.5984 483.132 36.8935C482.956 37.1886 482.704 37.4337 482.401 37.6046C481.948 37.9103 481.409 38.0712 480.859 38.065C480.369 38.0375 479.898 37.8733 479.501 37.5919C479.104 37.3105 478.798 36.9237 478.619 36.4773L478.343 35.8898L474.836 27.8558V37.9539H472.32V27.8876C472.326 27.546 472.421 27.2117 472.598 26.9168C472.774 26.622 473.025 26.3767 473.327 26.2046C473.777 25.9056 474.308 25.7452 474.853 25.7441V25.8235ZM485.762 27.967C485.753 27.6258 485.835 27.2884 486 26.9878C486.166 26.6872 486.408 26.4337 486.703 26.2522C487.124 25.9711 487.622 25.8216 488.132 25.8235H491.541C492.185 25.814 492.825 25.9346 493.42 26.1777C494.015 26.4208 494.552 26.7813 494.998 27.2366C495.436 27.647 495.784 28.1401 496.021 28.6859C496.259 29.2318 496.38 29.819 496.378 30.4121V33.3177C496.388 33.9388 496.264 34.5551 496.015 35.1266C495.767 35.6982 495.398 36.2124 494.933 36.6361C494.017 37.4832 492.801 37.9499 491.541 37.938H485.762V27.967ZM493.878 33.3653V30.4597C493.891 30.0754 493.813 29.6933 493.649 29.3435C493.486 28.9937 493.242 28.6856 492.937 28.4433C492.56 28.1183 492.076 27.9378 491.573 27.9352H488.326V35.874H491.573C491.938 35.8788 492.297 35.7905 492.616 35.6179C492.935 35.4453 493.202 35.1942 493.391 34.8895C493.725 34.4258 493.896 33.8687 493.878 33.3018V33.3653ZM503.456 27.967C503.446 27.6238 503.529 27.2841 503.698 26.9828C503.866 26.6815 504.113 26.4293 504.414 26.2522C504.827 25.9686 505.321 25.8187 505.826 25.8235H509.235C509.882 25.8137 510.525 25.9341 511.122 26.1772C511.72 26.4203 512.26 26.7809 512.709 27.2366C513.142 27.65 513.485 28.144 513.72 28.6894C513.954 29.2348 514.074 29.8206 514.073 30.4121V33.3177C514.082 33.9388 513.959 34.5551 513.71 35.1266C513.461 35.6982 513.093 36.2124 512.628 36.6361C511.712 37.4832 510.496 37.9499 509.235 37.938H503.456V27.967ZM511.573 33.3653V30.4597C511.589 30.0748 511.513 29.6916 511.349 29.3412C511.186 28.9907 510.94 28.6831 510.631 28.4433C510.255 28.1183 509.77 27.9378 509.268 27.9352H506.021V35.874H509.268C509.633 35.882 509.993 35.7952 510.313 35.6222C510.632 35.4492 510.899 35.1964 511.086 34.8895C511.42 34.4258 511.591 33.8687 511.573 33.3018V33.3653ZM516.086 25.8235H518.602V37.9857H516.086V25.8235ZM525.29 25.8235H526.914C527.987 25.8281 529.047 26.0667 530.014 26.5221C530.373 26.6869 530.707 26.9007 531.005 27.1572L528.813 28.745C528.613 28.5045 528.367 28.3049 528.089 28.1578C527.81 28.0106 527.505 27.9188 527.19 27.8876H525.209C524.846 27.8873 524.488 27.9776 524.17 28.1498C523.852 28.322 523.584 28.5705 523.391 28.872C523.071 29.3414 522.907 29.8958 522.92 30.4597V33.3653C522.908 33.7457 522.985 34.1238 523.145 34.4706C523.306 34.8174 523.545 35.1236 523.845 35.3659C524.232 35.6956 524.729 35.8762 525.242 35.874H528.488V31.9205H531.053V35.8422C531.06 36.1869 530.975 36.5274 530.807 36.8307C530.639 37.1339 530.394 37.3896 530.095 37.5728C529.681 37.8518 529.186 37.9962 528.683 37.9857H525.274C524.628 37.9975 523.987 37.8796 523.389 37.6393C522.791 37.399 522.251 37.0413 521.8 36.5884C521.367 36.175 521.024 35.681 520.79 35.1356C520.556 34.5902 520.435 34.0045 520.436 33.4129V30.4597C520.425 29.8344 520.549 29.2138 520.801 28.639C521.052 28.0642 521.426 27.5483 521.897 27.1255C522.792 26.2754 523.995 25.8071 525.242 25.8235H525.29ZM533.407 25.8235H535.923V37.9857H533.407V25.8235ZM545.42 25.8235L541.946 27.9352H537.725V25.8235H545.42ZM543.618 37.9857H541.069V27.967C541.064 27.6267 541.149 27.291 541.317 26.993C541.485 26.695 541.73 26.4451 542.027 26.2681C542.448 25.9724 542.954 25.8166 543.472 25.8235H547.287V27.9352H543.699L543.618 37.9857ZM555.241 36.382H548.618L549.657 34.2545H554.527L552.384 28.2845L548.91 37.9857H546.15L549.819 27.8082C550.355 26.3951 551.199 25.6806 552.335 25.6647C553.472 25.6488 554.316 26.3951 554.835 27.8082L558.537 37.9857H555.826L555.241 36.382ZM562.481 35.874H568.39V37.9857H562.27C561.899 38.0022 561.529 37.9298 561.192 37.7749C560.855 37.6199 560.562 37.3871 560.339 37.0965C560.053 36.7381 559.899 36.2965 559.9 35.8422V25.8235H562.417L562.481 35.874ZM269.839 53.6091L273.085 44.7971H275.537L272.209 54.0378C271.706 55.3239 270.943 55.9749 269.904 55.9907C268.865 56.0066 268.118 55.3239 267.631 54.0378L264.222 44.8765H266.673L269.839 53.6091ZM278.978 51.3386V53.9267H284.839V55.8478H278.8C278.463 55.8584 278.128 55.7906 277.823 55.6498C277.518 55.509 277.252 55.2993 277.046 55.0381C276.782 54.7132 276.639 54.31 276.641 53.8949V46.75C276.627 46.4345 276.699 46.1211 276.851 45.842C277.002 45.563 277.226 45.3284 277.501 45.1623C277.88 44.8986 278.335 44.7595 278.8 44.7653H284.774V46.6865H278.913V49.3857H284.303V51.3069L278.978 51.3386Z" fill="#3F4C61"/>
<path d="M290.904 45.4709V54.6004H288.599V45.5026C288.588 45.1858 288.664 44.872 288.818 44.5931C288.972 44.3142 289.199 44.0802 289.475 43.9149C289.853 43.6637 290.301 43.5309 290.758 43.5338H293.858C294.468 43.5045 295.077 43.5963 295.649 43.8037C296.221 44.0111 296.744 44.3298 297.186 44.7405C297.534 45.0688 297.809 45.464 297.993 45.9011C298.178 46.3383 298.268 46.8081 298.258 47.2809V47.7096C298.268 48.2945 298.125 48.8722 297.84 49.3867C297.556 49.9013 297.14 50.3354 296.634 50.6469C296.24 50.906 295.808 51.1041 295.352 51.2344L298.42 54.5846H295.563L292.722 51.409H290.222V49.4879H293.858C294.234 49.5286 294.613 49.4617 294.95 49.2954C295.287 49.1291 295.568 48.8705 295.758 48.5511C295.889 48.2724 295.955 47.9688 295.952 47.662V47.2333C295.992 46.8543 295.89 46.4743 295.667 46.1624C295.443 45.8506 295.112 45.6277 294.735 45.5344C294.453 45.441 294.156 45.398 293.858 45.4074L290.904 45.4709ZM302.462 43.4703C302.905 43.4923 303.332 43.6388 303.692 43.8923C304.052 44.1458 304.329 44.4954 304.491 44.8993L304.751 45.4232L307.998 52.7269V43.6291H310.287V52.8063C310.294 53.1262 310.213 53.4421 310.053 53.7212C309.893 54.0004 309.66 54.2327 309.378 54.394C308.963 54.6609 308.478 54.8043 307.981 54.8068C307.54 54.7881 307.113 54.6447 306.753 54.3939C306.393 54.1431 306.115 53.7958 305.952 53.3937L305.693 52.8698L302.446 45.5661V54.7433H300.157V45.4232C300.15 45.1033 300.231 44.7874 300.39 44.5083C300.55 44.2291 300.783 43.9968 301.066 43.8355C301.475 43.555 301.963 43.4053 302.462 43.4068V43.4703ZM322.787 45.836L320.238 52.9809H317.819L315.287 45.836L314.41 54.6004H311.959L312.998 45.3915C313.024 45.0249 313.149 44.6717 313.36 44.3677C313.571 44.0637 313.86 43.8198 314.199 43.6608C314.485 43.5358 314.795 43.4709 315.108 43.4703C315.425 43.4435 315.744 43.5018 316.03 43.6389C316.316 43.7759 316.559 43.9866 316.731 44.2483C316.823 44.3715 316.899 44.5047 316.959 44.6452L319.085 50.6946L321.212 44.6452C321.313 44.3613 321.49 44.1088 321.724 43.9136C321.958 43.7183 322.24 43.5872 322.543 43.5338C322.694 43.5106 322.847 43.5106 322.998 43.5338C323.316 43.5323 323.631 43.6066 323.914 43.7505C324.196 43.8943 324.439 44.1033 324.621 44.3594C324.854 44.6839 324.999 45.0608 325.043 45.455L326.098 54.6639H323.631L322.787 45.836ZM330.027 50.0912V52.6792H335.887V54.6004H329.946C329.609 54.611 329.274 54.5431 328.969 54.4023C328.664 54.2616 328.398 54.0519 328.192 53.7907C327.923 53.4673 327.775 53.0643 327.77 52.6475V45.5026C327.76 45.1876 327.834 44.8754 327.985 44.5969C328.136 44.3185 328.358 44.0833 328.631 43.9149C329.014 43.6489 329.475 43.5098 329.946 43.5179H335.984V45.4391H330.124V48.1383H335.53V50.0595L330.027 50.0912ZM340.936 43.4703C341.379 43.4923 341.806 43.6388 342.166 43.8923C342.525 44.1458 342.803 44.4954 342.965 44.8993L343.225 45.4232L346.471 52.7269V43.6291H348.663V52.8063C348.67 53.1262 348.589 53.4421 348.429 53.7212C348.27 54.0004 348.036 54.2327 347.754 54.394C347.339 54.6609 346.854 54.8043 346.358 54.8068C345.916 54.7901 345.488 54.6474 345.128 54.3964C344.767 54.1454 344.489 53.7969 344.328 53.3937L344.069 52.8698L340.822 45.5661V54.7433H338.533V45.4232C338.526 45.1033 338.607 44.7874 338.767 44.5083C338.926 44.2291 339.16 43.9968 339.442 43.8355C339.851 43.555 340.339 43.4053 340.838 43.4068L340.936 43.4703ZM355.773 43.6291L354.328 45.5502H350.286V43.6291H355.773ZM355.627 54.7433H353.322V45.5026C353.308 45.1871 353.381 44.8737 353.532 44.5946C353.683 44.3156 353.908 44.081 354.182 43.9149C354.561 43.6511 355.016 43.5121 355.481 43.5179H358.874V45.4391H355.627V54.7433ZM367.299 45.4709V54.6004H365.01V45.5026C365 45.1858 365.075 44.872 365.229 44.5931C365.383 44.3142 365.61 44.0802 365.887 43.9149C366.265 43.6637 366.712 43.5309 367.169 43.5338H370.27C370.879 43.5054 371.488 43.5977 372.06 43.805C372.631 44.0124 373.155 44.3306 373.598 44.7405C373.946 45.0688 374.22 45.464 374.405 45.9011C374.589 46.3383 374.679 46.8081 374.669 47.2809V47.7096C374.68 48.2945 374.536 48.8722 374.252 49.3867C373.967 49.9013 373.552 50.3354 373.046 50.6469C372.647 50.9091 372.209 51.1074 371.747 51.2344L374.831 54.5846H371.974L369.133 51.409H366.52L366.861 49.4879H370.27C370.645 49.5266 371.023 49.4588 371.36 49.2927C371.697 49.1266 371.978 48.8691 372.169 48.5511C372.3 48.2724 372.367 47.9688 372.364 47.662V47.2333C372.403 46.8543 372.302 46.4743 372.078 46.1624C371.855 45.8506 371.524 45.6277 371.146 45.5344C370.864 45.4435 370.567 45.4006 370.27 45.4074L367.299 45.4709ZM378.727 50.0912V52.6792H384.588V54.6004H378.533C378.196 54.611 377.861 54.5431 377.556 54.4023C377.251 54.2616 376.985 54.0519 376.779 53.7907C376.511 53.4673 376.362 53.0643 376.357 52.6475V45.5026C376.345 45.1855 376.42 44.8711 376.574 44.5919C376.729 44.3127 376.956 44.079 377.234 43.9149C377.612 43.6491 378.067 43.5099 378.533 43.5179H384.588V45.4391H378.727V48.1383H384.133V50.0595L378.727 50.0912ZM391.211 43.6291H392.737C393.708 43.6316 394.667 43.843 395.545 44.2483C395.871 44.4005 396.172 44.5984 396.438 44.8358L394.458 46.3282C394.093 45.8958 393.567 45.6219 392.997 45.5661H391.211C390.886 45.5672 390.566 45.6494 390.282 45.805C389.998 45.9606 389.759 46.1844 389.588 46.4553C389.308 46.8695 389.161 47.356 389.166 47.8525V50.4882C389.152 50.8341 389.22 51.1785 389.363 51.4949C389.507 51.8114 389.722 52.0916 389.994 52.3141C390.353 52.6091 390.807 52.7719 391.276 52.7745H394.117V49.0909H396.422V52.6475C396.432 52.9643 396.357 53.2781 396.203 53.557C396.049 53.8359 395.822 54.0699 395.545 54.2352C395.169 54.4892 394.721 54.6223 394.263 54.6163H391.179C390.575 54.6377 389.974 54.5341 389.415 54.3125C388.855 54.0909 388.35 53.7561 387.932 53.3302C387.533 52.9519 387.217 52.4973 387.005 51.9948C386.793 51.4922 386.688 50.9524 386.698 50.4088V47.7572C386.686 47.1881 386.798 46.6229 387.028 46.0998C387.257 45.5767 387.599 45.1078 388.029 44.7246C388.842 43.9551 389.934 43.5325 391.065 43.5497L391.211 43.6291ZM398.403 43.6291H400.708V50.4723C400.694 50.8221 400.763 51.1704 400.909 51.49C401.055 51.8095 401.275 52.0915 401.552 52.3141C401.905 52.5965 402.346 52.7533 402.802 52.7586H404.019C404.344 52.7546 404.663 52.6712 404.947 52.5159C405.23 52.3606 405.469 52.1384 405.643 51.8695C405.935 51.4602 406.088 50.9714 406.081 50.4723V43.6291H408.37V50.4723C408.38 51.0373 408.268 51.598 408.042 52.1179C407.815 52.6377 407.479 53.1049 407.055 53.489C406.228 54.2686 405.119 54.6967 403.971 54.6798H402.753C402.15 54.6992 401.55 54.5947 400.99 54.3732C400.431 54.1517 399.926 53.8181 399.506 53.3937C399.107 53.0154 398.792 52.5608 398.579 52.0583C398.367 51.5558 398.263 51.0159 398.273 50.4723L398.403 43.6291ZM412.672 52.6792H418.078V54.6004H412.493C412.157 54.6134 411.822 54.5448 411.519 54.4007C411.216 54.2567 410.954 54.0417 410.756 53.7748C410.49 53.4574 410.346 53.0582 410.35 52.6475V43.6291H412.639L412.672 52.6792ZM427.396 53.1556H421.422L422.087 51.2344H426.698L424.75 45.8202L421.584 54.6322H419.133L422.38 45.3756C422.883 44.0895 423.646 43.4385 424.669 43.4385C425.691 43.4385 426.47 44.0895 426.957 45.3756L430.302 54.6322H427.85L427.396 53.1556ZM435.935 43.6291L434.1 45.5502H429.62V43.6291H435.935ZM434.977 54.7433H432.672V45.5026C432.661 45.1876 432.735 44.8754 432.886 44.5969C433.037 44.3185 433.26 44.0833 433.532 43.9149C433.916 43.6489 434.377 43.5098 434.847 43.5179H438.24V45.4391H434.993L434.977 54.7433ZM445.236 54.7433H443.71C443.123 54.7533 442.54 54.6441 441.998 54.4228C441.456 54.2014 440.967 53.8727 440.561 53.4572C440.16 53.0797 439.842 52.6256 439.627 52.1232C439.412 51.6207 439.304 51.0804 439.311 50.5358V47.5984C439.303 47.0361 439.416 46.4784 439.643 45.9615C439.869 45.4445 440.204 44.9799 440.626 44.5976C441.455 43.8209 442.563 43.3933 443.71 43.4068H445.236C445.822 43.3976 446.404 43.5056 446.945 43.724C447.487 43.9424 447.977 44.2667 448.386 44.677C448.785 45.0562 449.101 45.5106 449.316 46.0127C449.531 46.5148 449.64 47.0542 449.636 47.5984V50.5358C449.646 51.1008 449.534 51.6615 449.307 52.1814C449.081 52.7012 448.745 53.1684 448.321 53.5525C447.492 54.3292 446.384 54.7568 445.236 54.7433ZM443.71 52.8221H445.236C445.563 52.8179 445.884 52.7327 446.167 52.5744C446.451 52.4161 446.69 52.19 446.86 51.9171C447.15 51.5127 447.303 51.0297 447.298 50.5358V47.5984C447.313 47.2492 447.242 46.9015 447.093 46.5841C446.943 46.2667 446.719 45.9885 446.438 45.7725C446.096 45.4816 445.657 45.3235 445.204 45.328H443.678C443.352 45.3275 443.032 45.4091 442.747 45.5648C442.463 45.7205 442.225 45.9452 442.055 46.2171C441.753 46.6165 441.593 47.1018 441.6 47.5984V50.5358C441.586 50.8834 441.655 51.2293 441.802 51.5463C441.948 51.8632 442.168 52.1424 442.444 52.3617C442.799 52.6533 443.247 52.8159 443.71 52.8221ZM453.743 45.4709V54.6004H451.454V45.5026C451.444 45.1858 451.519 44.872 451.673 44.5931C451.827 44.3142 452.054 44.0802 452.331 43.9149C452.709 43.6637 453.156 43.5309 453.613 43.5338H456.714C457.323 43.5045 457.932 43.5963 458.504 43.8037C459.076 44.0111 459.599 44.3298 460.041 44.7405C460.39 45.0688 460.664 45.464 460.849 45.9011C461.033 46.3383 461.123 46.8081 461.113 47.2809V47.7096C461.132 48.287 461.001 48.8598 460.731 49.3738C460.461 49.8878 460.062 50.326 459.571 50.6469C459.173 50.9091 458.734 51.1074 458.272 51.2344L461.356 54.5846H458.499L455.658 51.409H453.353V49.4879H456.746C457.121 49.5266 457.5 49.4588 457.837 49.2927C458.173 49.1266 458.454 48.8691 458.645 48.5511C458.777 48.2724 458.843 47.9688 458.84 47.662V47.2333C458.879 46.8543 458.778 46.4743 458.554 46.1624C458.331 45.8506 458 45.6277 457.623 45.5344C457.34 45.4435 457.043 45.4006 456.746 45.4074L453.743 45.4709ZM483.84 53.1556H477.769L478.288 51.2344H483.158L481.21 45.8202L478.045 54.6322H475.593L478.921 45.3756C479.408 44.0895 480.171 43.4385 481.21 43.4385C482.249 43.4385 483.012 44.0895 483.483 45.3756L486.843 54.6322H484.376L483.84 53.1556ZM488.028 43.6291H490.317V50.4723C490.306 50.8233 490.378 51.172 490.527 51.4914C490.677 51.8108 490.899 52.0923 491.177 52.3141C491.524 52.5965 491.96 52.7535 492.411 52.7586H493.645C493.97 52.7546 494.289 52.6712 494.572 52.5159C494.856 52.3606 495.095 52.1384 495.268 51.8695C495.573 51.4652 495.732 50.9742 495.723 50.4723V43.6291H498.012V50.4723C498.022 51.0373 497.91 51.598 497.683 52.1179C497.457 52.6377 497.121 53.1049 496.697 53.489C495.868 54.2657 494.76 54.6932 493.613 54.6798H492.379C491.792 54.6878 491.209 54.5778 490.668 54.3566C490.126 54.1354 489.636 53.8076 489.229 53.3937C488.83 53.0154 488.515 52.5608 488.302 52.0583C488.09 51.5558 487.986 51.0159 487.996 50.4723L488.028 43.6291ZM505.642 43.6291L503.661 45.5502H499.505V43.6291H505.642ZM504.862 54.7433H502.557V45.5026C502.545 45.1855 502.62 44.8711 502.774 44.5919C502.928 44.3127 503.156 44.079 503.434 43.9149C503.812 43.6491 504.267 43.5099 504.733 43.5179H508.125V45.4391H504.879L504.862 54.7433ZM512.054 49.3767L511.453 48.17H516.973V43.5497H519.278V54.6004H516.973V50.0912H512.054V54.6004H509.765V43.5497H512.054V49.3767ZM526.924 54.7433H525.398C524.811 54.7533 524.228 54.6441 523.686 54.4228C523.143 54.2014 522.654 53.8727 522.249 53.4572C521.847 53.0797 521.529 52.6256 521.314 52.1232C521.099 51.6207 520.992 51.0804 520.999 50.5358V47.5984C520.991 47.0361 521.104 46.4784 521.33 45.9615C521.557 45.4445 521.892 44.9799 522.313 44.5976C523.142 43.8209 524.25 43.3933 525.398 43.4068H526.924C527.512 43.3992 528.095 43.5078 528.639 43.726C529.183 43.9443 529.676 44.2677 530.089 44.677C530.486 45.057 530.8 45.5119 531.012 46.014C531.224 46.5162 531.33 47.0552 531.323 47.5984V50.5358C531.333 51.1008 531.221 51.6615 530.995 52.1814C530.768 52.7012 530.432 53.1684 530.008 53.5525C529.181 54.3321 528.072 54.7602 526.924 54.7433ZM525.398 52.8221H526.924C527.251 52.8179 527.571 52.7327 527.855 52.5744C528.139 52.4161 528.377 52.19 528.547 51.9171C528.825 51.5078 528.972 51.027 528.969 50.5358V47.5984C528.983 47.2509 528.914 46.9049 528.768 46.588C528.621 46.271 528.401 45.9918 528.125 45.7725C527.776 45.4831 527.333 45.3254 526.875 45.328H525.349C525.024 45.329 524.704 45.4112 524.42 45.5668C524.136 45.7224 523.897 45.9462 523.726 46.2171C523.431 46.6201 523.272 47.103 523.271 47.5984V50.5358C523.261 50.8828 523.332 51.2276 523.478 51.544C523.624 51.8604 523.842 52.14 524.115 52.3617C524.471 52.6533 524.918 52.8159 525.382 52.8221H525.398ZM535.446 45.4709V54.6004H533.158V45.5026C533.147 45.1876 533.221 44.8754 533.372 44.5969C533.523 44.3185 533.746 44.0833 534.018 43.9149C534.421 43.6877 534.886 43.5879 535.349 43.6291H538.45C539.061 43.6013 539.672 43.6937 540.247 43.901C540.821 44.1083 541.347 44.4261 541.794 44.8358C542.137 45.1671 542.407 45.5632 542.588 45.9999C542.77 46.4366 542.858 46.9049 542.849 47.3762V47.8049C542.868 48.3823 542.737 48.9551 542.467 49.4691C542.197 49.983 541.798 50.4212 541.307 50.7422C540.914 51.004 540.481 51.2023 540.024 51.3297L543.109 54.6798H540.219L537.378 51.5043H534.748L534.375 49.5831H538.417C538.793 49.6259 539.173 49.56 539.511 49.3935C539.848 49.2269 540.128 48.9672 540.317 48.6464C540.448 48.3677 540.514 48.064 540.511 47.7572V47.3285C540.55 46.9496 540.449 46.5696 540.226 46.2577C540.002 45.9458 539.671 45.7229 539.294 45.6296C539.012 45.5362 538.715 45.4932 538.417 45.5026L535.446 45.4709ZM544.781 43.5497H547.07V54.6004H544.781V43.5497ZM554.505 43.6291L553.011 45.5502H548.709V43.6291H554.505ZM554.066 54.7433H551.761V45.5026C551.751 45.1876 551.825 44.8754 551.976 44.5969C552.127 44.3185 552.349 44.0833 552.622 43.9149C553 43.6511 553.455 43.5121 553.92 43.5179H557.329V45.4391H554.083L554.066 54.7433ZM563.514 48.3923L566.68 43.6291H569.147L565.787 48.8528C565.502 49.3387 565.128 49.7693 564.683 50.123V54.6798H562.378V50.0753C561.908 49.7221 561.516 49.2792 561.225 48.7734L557.898 43.6291H560.349L563.514 48.3923ZM467.168 48.3923L470.415 43.6291H472.866L469.522 48.8528C469.232 49.3352 468.858 49.7649 468.418 50.123V54.6798H466.113V50.0753C465.643 49.7221 465.25 49.2792 464.96 48.7734L461.6 43.6291H464.051L467.168 48.3923Z" fill="#3F4C61"/>
<path d="M193.979 10.3859C192.064 4.98752 188.72 0.859375 182.941 0.859375C177.161 0.859375 173.834 5.0034 171.902 10.3859L155.766 55.6209H167.616L170.181 48.3966L173.525 39.013L182.941 12.4976L198.281 55.6209H210.132L193.979 10.3859Z" fill="#9D805F"/>
<path d="M248.604 5.8451V4.97183C248.602 4.94412 248.605 4.91621 248.615 4.89006C248.625 4.86392 248.64 4.84018 248.66 4.82051C248.68 4.80083 248.705 4.78571 248.731 4.77619C248.758 4.76668 248.787 4.763 248.815 4.76542H251.266C251.396 4.76542 251.461 4.84481 251.461 4.97183V11.1482C251.43 11.4487 251.517 11.7495 251.705 11.9897C251.917 12.1516 252.183 12.2308 252.451 12.212H253.084C253.636 12.212 253.912 12.6248 253.912 13.4345C253.945 13.769 253.877 14.1056 253.718 14.4031C253.638 14.4878 253.539 14.5534 253.43 14.5947C253.32 14.6361 253.202 14.652 253.084 14.6412H250.958C250.399 14.6793 249.84 14.5754 249.335 14.3396C249.124 14.2132 248.947 14.0418 248.814 13.8382C248.682 13.6346 248.599 13.4043 248.572 13.1646C248.262 13.4049 247.91 13.5879 247.533 13.7045C247.122 13.8267 246.695 13.8856 246.266 13.8791C245.749 13.8867 245.233 13.8116 244.74 13.6568C244.265 13.5274 243.827 13.294 243.458 12.9741C243.066 12.6507 242.765 12.2356 242.581 11.7674C242.354 11.1904 242.244 10.5756 242.257 9.95737C242.234 9.27358 242.355 8.5925 242.614 7.9568C242.826 7.46515 243.154 7.02978 243.572 6.6866C243.963 6.37978 244.417 6.15788 244.903 6.03562C245.401 5.90892 245.914 5.84489 246.429 5.8451H248.604ZM244.432 3.35233C244.404 3.35475 244.375 3.35108 244.348 3.34156C244.322 3.33205 244.297 3.31692 244.277 3.29725C244.257 3.27757 244.242 3.25383 244.232 3.22769C244.222 3.20155 244.218 3.17364 244.221 3.14592V1.17711C244.221 1.03421 244.221 0.970703 244.432 0.970703H246.494C246.623 0.970703 246.688 0.970703 246.688 1.17711V3.14592C246.688 3.27294 246.688 3.35233 246.494 3.35233H244.432ZM246.916 11.4499C247.14 11.4615 247.365 11.4296 247.576 11.356C247.788 11.2824 247.983 11.1686 248.149 11.0212C248.316 10.8359 248.443 10.6192 248.521 10.3844C248.599 10.1496 248.627 9.90158 248.604 9.65569V8.27435H246.981C246.539 8.25688 246.104 8.38554 245.747 8.63953C245.571 8.8096 245.437 9.01674 245.355 9.24513C245.274 9.47353 245.247 9.71714 245.276 9.95737C245.249 10.1737 245.278 10.3931 245.36 10.5956C245.443 10.7981 245.576 10.9772 245.747 11.1164C246.094 11.3512 246.51 11.4683 246.932 11.4499H246.916ZM247.614 3.35233C247.484 3.35233 247.419 3.27294 247.419 3.14592V1.17711C247.419 1.03421 247.419 0.970703 247.614 0.970703H249.643C249.789 0.970703 249.854 0.970703 249.854 1.17711V3.14592C249.856 3.17364 249.853 3.20155 249.843 3.22769C249.833 3.25383 249.818 3.27757 249.798 3.29725C249.778 3.31692 249.753 3.33205 249.727 3.34156C249.7 3.35108 249.671 3.35475 249.643 3.35233H247.614Z" fill="#344B61"/>
<path d="M255.642 6.38414C255.642 6.24124 255.642 6.17773 255.853 6.17773H258.32C258.45 6.17773 258.515 6.17773 258.515 6.38414V11.1474C258.525 11.3046 258.571 11.4577 258.65 11.5951C258.728 11.7325 258.838 11.8509 258.97 11.9413C259.302 12.1523 259.695 12.2525 260.09 12.2271H260.561C260.68 12.2191 260.799 12.2411 260.907 12.2912C261.015 12.3412 261.108 12.4176 261.177 12.5129C261.336 12.7939 261.409 13.1134 261.388 13.4338C261.388 14.2594 261.112 14.6563 260.561 14.6563C260.099 14.6694 259.639 14.6105 259.197 14.4817C258.786 14.3287 258.446 14.0354 258.239 13.656C258.143 13.8514 258.007 14.0255 257.839 14.1674C257.672 14.3094 257.476 14.4164 257.265 14.4817C256.686 14.619 256.091 14.6777 255.496 14.6563H253.369C253.255 14.6624 253.14 14.6442 253.034 14.6031C252.928 14.562 252.831 14.4989 252.752 14.4182C252.596 14.1309 252.528 13.8055 252.557 13.4814C252.529 13.1471 252.597 12.8118 252.752 12.5129C252.821 12.4176 252.914 12.3412 253.022 12.2912C253.13 12.2411 253.25 12.2191 253.369 12.2271H254.651C255.09 12.2271 255.366 12.1 255.479 11.8619C255.614 11.4465 255.669 11.0106 255.642 10.5758V6.38414ZM254.343 18.7686C254.315 18.771 254.286 18.7673 254.259 18.7578C254.233 18.7483 254.208 18.7332 254.188 18.7135C254.168 18.6938 254.153 18.6701 254.143 18.644C254.133 18.6178 254.13 18.5899 254.132 18.5622V16.641C254.132 16.514 254.132 16.4505 254.343 16.4505H256.405C256.431 16.448 256.457 16.4513 256.482 16.46C256.507 16.4687 256.529 16.4826 256.548 16.5008C256.567 16.519 256.581 16.541 256.59 16.5653C256.599 16.5895 256.602 16.6154 256.6 16.641V18.6098C256.6 18.7527 256.6 18.8162 256.405 18.8162L254.343 18.7686ZM257.509 18.7686C257.379 18.7686 257.314 18.7686 257.314 18.5622V16.641C257.311 16.6154 257.315 16.5895 257.323 16.5653C257.332 16.541 257.347 16.519 257.365 16.5008C257.384 16.4826 257.406 16.4687 257.431 16.46C257.456 16.4513 257.482 16.448 257.509 16.4505H259.587C259.733 16.4505 259.798 16.4505 259.798 16.641V18.6098C259.798 18.7527 259.798 18.8162 259.587 18.8162L257.509 18.7686Z" fill="#344B61"/>
<path d="M266.994 14.7838C266.312 14.7954 265.634 14.7044 264.981 14.5139C264.39 14.3443 263.861 14.0139 263.455 13.5613C263.302 13.7982 263.096 13.9989 262.854 14.1487C262.61 14.2918 262.348 14.4039 262.075 14.4821C261.813 14.5451 261.547 14.5928 261.279 14.625H260.581C260.464 14.6307 260.347 14.6091 260.24 14.5622C260.133 14.5153 260.038 14.4444 259.964 14.3551C259.806 14.0744 259.738 13.7534 259.77 13.4342C259.738 13.1015 259.8 12.7667 259.948 12.4657C260.019 12.368 260.115 12.2901 260.226 12.24C260.337 12.1898 260.459 12.1691 260.581 12.1799H261.182C261.345 12.1784 261.505 12.1438 261.653 12.0782C261.801 12.0125 261.934 11.9174 262.042 11.7989C262.343 11.3824 262.492 10.879 262.464 10.3699V9.97294C262.427 9.40562 262.512 8.83694 262.713 8.30363C262.914 7.77033 263.228 7.28426 263.633 6.87683C264.597 6.16585 265.771 5.78125 266.977 5.78125C268.184 5.78125 269.358 6.16585 270.322 6.87683C270.76 7.33286 271.096 7.87351 271.309 8.4641C271.521 9.05469 271.605 9.68219 271.555 10.3064V10.5763C271.525 10.7968 271.543 11.021 271.607 11.2343C271.672 11.4476 271.781 11.6454 271.929 11.8147C272.171 12.0203 272.485 12.1281 272.805 12.1164H273.406C273.525 12.1084 273.645 12.1305 273.753 12.1805C273.861 12.2306 273.954 12.3069 274.023 12.4022C274.187 12.6811 274.261 13.0023 274.234 13.3231C274.234 14.1487 273.958 14.5615 273.406 14.5615H272.643C272.384 14.5315 272.129 14.4783 271.88 14.4028C271.63 14.3218 271.395 14.204 271.182 14.0535C270.951 13.8762 270.753 13.6614 270.598 13.4184C270.196 13.8969 269.66 14.2501 269.055 14.4345C268.387 14.6305 267.692 14.7269 266.994 14.7203V14.7838ZM266.994 8.21054C265.857 8.21054 265.37 8.89327 265.37 10.2429C265.311 10.8045 265.461 11.3681 265.792 11.8306C266.149 12.117 266.597 12.2735 267.059 12.2735C267.52 12.2735 267.968 12.117 268.325 11.8306C268.649 11.3652 268.799 10.804 268.747 10.2429C268.747 8.89327 268.179 8.21054 267.124 8.21054" fill="#344B61"/>
<path d="M273.487 14.6409C273.373 14.6503 273.257 14.6338 273.15 14.5924C273.043 14.5511 272.948 14.4862 272.871 14.4027C272.711 14.0993 272.644 13.7579 272.676 13.4183C272.649 13.0943 272.716 12.7694 272.871 12.4815C272.942 12.3884 273.035 12.3136 273.143 12.2638C273.25 12.214 273.369 12.1906 273.487 12.1957H275.111C274.864 11.6241 274.753 11.0053 274.786 10.3857C274.758 9.63817 274.885 8.89283 275.159 8.1946C275.384 7.6571 275.734 7.17856 276.182 6.79738C276.607 6.44963 277.106 6.19999 277.643 6.06702C278.171 5.92012 278.718 5.84532 279.267 5.84473C279.854 5.83631 280.439 5.91119 281.004 6.06702C281.56 6.197 282.074 6.45919 282.502 6.83033C282.929 7.20146 283.257 7.67008 283.455 8.1946C283.731 8.89802 283.858 9.6488 283.828 10.4016C283.851 11.0994 283.735 11.7949 283.487 12.4498C283.276 12.9508 282.948 13.3967 282.53 13.7517C282.107 14.0869 281.613 14.3256 281.085 14.4503C280.493 14.5794 279.889 14.6434 279.283 14.6409H273.487ZM276.637 4.14584C276.611 4.1483 276.584 4.14506 276.559 4.13636C276.535 4.12765 276.512 4.11369 276.493 4.09549C276.475 4.07728 276.461 4.05527 276.452 4.03104C276.443 4.0068 276.439 3.98094 276.442 3.95531V1.97062C276.439 1.94499 276.443 1.91913 276.452 1.8949C276.461 1.87067 276.475 1.84866 276.493 1.83045C276.512 1.81224 276.535 1.79829 276.559 1.78958C276.584 1.78088 276.611 1.77764 276.637 1.78009H278.698C278.828 1.78009 278.909 1.78009 278.909 1.97062V3.93943C278.909 4.06645 278.828 4.12996 278.698 4.12996L276.637 4.14584ZM279.299 8.27399C278.195 8.27399 277.676 8.92497 277.676 10.2269C277.62 10.7884 277.769 11.351 278.098 11.8147C278.262 11.9709 278.459 12.0913 278.674 12.1679C278.889 12.2445 279.119 12.2757 279.348 12.2592C279.578 12.28 279.81 12.2526 280.028 12.1786C280.247 12.1047 280.446 11.986 280.614 11.8305C280.951 11.3706 281.101 10.8049 281.036 10.2428C281.036 8.89321 280.468 8.22636 279.413 8.22636L279.299 8.27399ZM279.932 4.09821C279.786 4.09821 279.721 4.09821 279.721 3.90768V1.97062C279.721 1.8436 279.721 1.78009 279.932 1.78009H282.01C282.036 1.77764 282.063 1.78088 282.087 1.78958C282.112 1.79829 282.135 1.81224 282.153 1.83045C282.172 1.84866 282.186 1.87067 282.195 1.8949C282.204 1.91913 282.207 1.94499 282.205 1.97062V3.93943C282.207 3.96507 282.204 3.99092 282.195 4.01516C282.186 4.03939 282.172 4.0614 282.153 4.07961C282.135 4.09782 282.112 4.11177 282.087 4.12048C282.063 4.12918 282.036 4.13242 282.01 4.12996L279.932 4.09821ZM287.14 6.38457C287.14 6.24167 287.14 6.17816 287.351 6.17816H289.851C289.997 6.17816 290.062 6.17816 290.062 6.38457V11.1478C290.072 11.3032 290.117 11.4546 290.192 11.5917C290.268 11.7287 290.373 11.8481 290.5 11.9417C290.834 12.1477 291.226 12.2475 291.62 12.2275H292.075C292.194 12.2195 292.313 12.2416 292.421 12.2916C292.529 12.3417 292.623 12.418 292.692 12.5133C292.856 12.7922 292.929 13.1134 292.903 13.4342C292.903 14.2598 292.627 14.6567 292.075 14.6567C291.681 14.669 291.287 14.6263 290.906 14.5297C290.571 14.4378 290.275 14.2429 290.062 13.974V14.3074C290.155 15.5025 289.835 16.6934 289.153 17.6893C288.758 18.0896 288.275 18.3964 287.74 18.5863C287.206 18.7762 286.634 18.8441 286.068 18.7849H285.127C284.981 18.7849 284.916 18.7849 284.916 18.5785V16.5462C284.916 16.4033 284.916 16.3398 285.127 16.3398H285.581C285.878 16.3506 286.174 16.2906 286.442 16.1651C286.649 16.0524 286.81 15.8728 286.896 15.657C287.02 15.4038 287.086 15.1277 287.091 14.8473C287.091 14.5297 287.091 14.1645 287.091 13.7517L287.14 6.38457Z" fill="#344B61"/>
<path d="M292.068 14.64C291.855 14.6499 291.643 14.6062 291.451 14.513C291.376 14.4386 291.32 14.3484 291.286 14.2493C291.252 14.1502 291.242 14.0449 291.257 13.9414C291.243 13.7617 291.243 13.5812 291.257 13.4016C291.286 13.2068 291.335 13.0154 291.403 12.83C291.443 12.6685 291.528 12.5205 291.646 12.4013C291.688 12.3424 291.744 12.2943 291.809 12.2612C291.874 12.228 291.946 12.2107 292.02 12.2107H292.75C293.019 12.2296 293.285 12.1504 293.497 11.9885C293.684 11.7483 293.771 11.4475 293.74 11.1469V1.17588C293.74 1.03298 293.74 0.969475 293.935 0.969475H296.451C296.48 0.96705 296.508 0.970725 296.535 0.980241C296.562 0.989757 296.586 1.00488 296.606 1.02455C296.626 1.04423 296.642 1.06797 296.651 1.09411C296.661 1.12026 296.665 1.14817 296.662 1.17588V12.1155C296.719 12.8022 296.517 13.4854 296.094 14.0367C295.848 14.2616 295.556 14.432 295.236 14.5362C294.917 14.6403 294.578 14.6757 294.244 14.64H292.068Z" fill="#344B61"/>
<path d="M301.846 0.970703H299.379C299.262 0.970703 299.168 1.06311 299.168 1.17711V14.4348C299.168 14.5488 299.262 14.6412 299.379 14.6412H301.846C301.963 14.6412 302.058 14.5488 302.058 14.4348V1.17711C302.058 1.06311 301.963 0.970703 301.846 0.970703Z" fill="#344B61"/>
<path d="M315.153 5.84387V4.9706C315.153 4.84358 315.153 4.7642 315.348 4.7642H317.815C317.844 4.76177 317.872 4.76545 317.899 4.77496C317.926 4.78448 317.95 4.7996 317.97 4.81928C317.99 4.83895 318.006 4.86269 318.015 4.88883C318.025 4.91498 318.029 4.94289 318.026 4.9706V11.1469C317.998 11.4449 318.079 11.7429 318.254 11.9885C318.466 12.1504 318.732 12.2296 319 12.2107H319.65C320.202 12.2107 320.478 12.6236 320.478 13.4333C320.51 13.7678 320.442 14.1043 320.283 14.4018C320.202 14.4856 320.104 14.5506 319.994 14.5918C319.884 14.6331 319.767 14.6495 319.65 14.64H317.507C316.948 14.6781 316.389 14.5741 315.883 14.3383C315.676 14.2103 315.502 14.0381 315.372 13.8346C315.243 13.6311 315.162 13.4016 315.137 13.1634C314.822 13.4054 314.464 13.5884 314.081 13.7032C313.677 13.8256 313.255 13.8846 312.832 13.8779C312.281 13.894 311.733 13.8189 311.208 13.6556C310.735 13.5213 310.298 13.2884 309.926 12.9729C309.534 12.6495 309.232 12.2343 309.049 11.7662C308.822 11.1892 308.711 10.5744 308.724 9.95614C308.706 9.2712 308.833 8.59 309.098 7.95557C309.304 7.46495 309.627 7.0295 310.039 6.68537C310.433 6.38171 310.886 6.16016 311.37 6.0344C311.901 5.9009 312.446 5.83683 312.994 5.84387H315.153ZM310.965 3.3511C310.835 3.3511 310.77 3.27171 310.77 3.14469V1.17588C310.77 1.03298 310.77 0.969475 310.965 0.969475H313.026C313.055 0.96705 313.083 0.970725 313.11 0.980241C313.137 0.989757 313.161 1.00488 313.181 1.02455C313.201 1.04423 313.217 1.06797 313.226 1.09411C313.236 1.12026 313.24 1.14817 313.237 1.17588V3.14469C313.24 3.17241 313.236 3.20032 313.226 3.22646C313.217 3.2526 313.201 3.27635 313.181 3.29602C313.161 3.31569 313.137 3.33082 313.11 3.34033C313.083 3.34985 313.055 3.35352 313.026 3.3511H310.965ZM313.448 11.4486C313.673 11.4602 313.897 11.4283 314.109 11.3548C314.321 11.2812 314.516 11.1674 314.682 11.0199C314.852 10.836 314.981 10.6199 315.062 10.385C315.143 10.1501 315.174 9.90146 315.153 9.65447V8.27312H313.53C313.083 8.25329 312.642 8.382 312.28 8.63831C312.104 8.80837 311.97 9.01551 311.888 9.2439C311.807 9.4723 311.779 9.71591 311.809 9.95614C311.782 10.1724 311.811 10.3919 311.893 10.5944C311.975 10.7969 312.108 10.976 312.28 11.1152C312.628 11.3479 313.043 11.4648 313.465 11.4486H313.448ZM314.146 3.3511C314.017 3.3511 313.952 3.27171 313.952 3.14469V1.17588C313.952 1.03298 313.952 0.969475 314.146 0.969475H316.192C316.322 0.969475 316.387 0.969475 316.387 1.17588V3.14469C316.387 3.27171 316.387 3.3511 316.192 3.3511H314.146Z" fill="#344B61"/>
<path d="M326.278 14.7838C325.597 14.7953 324.918 14.7043 324.265 14.5139C323.669 14.347 323.133 14.0164 322.723 13.5612C322.552 13.8143 322.324 14.026 322.057 14.1804C321.816 14.3129 321.56 14.4193 321.294 14.498C321.046 14.5685 320.79 14.6111 320.531 14.625H319.866C319.748 14.6319 319.631 14.611 319.524 14.564C319.416 14.517 319.322 14.4453 319.249 14.3551C319.085 14.0761 319.011 13.755 319.038 13.4342C319.009 13.0947 319.076 12.754 319.233 12.4498C319.307 12.3572 319.404 12.2841 319.515 12.237C319.625 12.1899 319.746 12.1703 319.866 12.1799H320.467C320.626 12.1744 320.783 12.1379 320.928 12.0724C321.073 12.007 321.203 11.914 321.311 11.7988C321.625 11.389 321.775 10.8806 321.733 10.3698V9.97289C321.714 9.28637 321.847 8.60391 322.122 7.97233C322.355 7.47536 322.699 7.03586 323.129 6.68625C323.56 6.36833 324.051 6.13637 324.574 6.00352C325.132 5.87575 325.704 5.81181 326.278 5.81299C326.865 5.80567 327.45 5.88052 328.015 6.03527C328.547 6.1684 329.041 6.41816 329.46 6.76564C329.908 7.14978 330.253 7.63478 330.466 8.17874C330.736 8.8783 330.863 9.62264 330.84 10.3698C330.862 11.0794 330.741 11.7863 330.483 12.4498C330.282 12.9698 329.953 13.4333 329.525 13.7994C329.108 14.1502 328.614 14.4004 328.08 14.5297C327.493 14.6875 326.887 14.7624 326.278 14.752V14.7838ZM326.278 8.24225C325.142 8.24225 324.655 8.92498 324.655 10.2746C324.599 10.8383 324.755 11.4026 325.093 11.8623C325.444 12.1324 325.877 12.2805 326.324 12.2834C326.771 12.2863 327.206 12.1437 327.561 11.8782C327.878 11.4103 328.022 10.8496 327.966 10.2904C327.966 8.94086 327.414 8.25812 326.343 8.25812L326.278 8.24225ZM334.671 18.769C334.525 18.769 334.46 18.769 334.46 18.5626V16.5462C334.46 16.4033 334.46 16.3398 334.671 16.3398H337.025C337.287 16.3403 337.548 16.3137 337.804 16.2604C338.009 16.2235 338.203 16.1421 338.372 16.0222C338.529 15.8787 338.647 15.6984 338.713 15.4983C338.812 15.2288 338.856 14.9429 338.843 14.6568H336.862C335.744 14.7284 334.638 14.3886 333.762 13.7041C333.372 13.274 333.075 12.7705 332.891 12.2245C332.707 11.6784 332.639 11.1014 332.69 10.5286C332.672 9.7869 332.799 9.0486 333.064 8.35339C333.293 7.80904 333.642 7.32103 334.086 6.92441C334.5 6.55934 334.995 6.29303 335.531 6.14642C336.058 5.9921 336.605 5.91191 337.155 5.90825C337.741 5.90094 338.326 5.97579 338.892 6.13054C339.424 6.26367 339.918 6.51342 340.336 6.8609C340.769 7.23919 341.102 7.71269 341.31 8.24225C341.576 8.93186 341.702 9.66502 341.684 10.4016V12.2751H343.08C343.632 12.2751 343.892 12.6879 343.892 13.4818C343.929 13.8267 343.861 14.1747 343.697 14.4821C343.62 14.5656 343.524 14.6305 343.417 14.6718C343.31 14.7132 343.194 14.7297 343.08 14.7203H341.684V15.0537C341.722 15.5633 341.655 16.0754 341.484 16.5585C341.314 17.0417 341.045 17.4859 340.694 17.864C339.83 18.5451 338.731 18.8749 337.625 18.7849L334.671 18.769ZM337.301 8.274C337.06 8.26083 336.819 8.30442 336.598 8.40111C336.378 8.49781 336.185 8.64479 336.035 8.82971C335.709 9.29523 335.554 9.85496 335.596 10.4175C335.564 10.6821 335.589 10.9505 335.67 11.205C335.751 11.4595 335.886 11.6944 336.067 11.8941C336.437 12.1482 336.882 12.2766 337.333 12.2593H338.957V10.2904C338.957 8.97261 338.421 8.30576 337.333 8.30576" fill="#344B61"/>
<path d="M347.898 6.03552C348.503 6.05662 349.106 6.12565 349.7 6.24192C350.196 6.3344 350.666 6.52926 351.08 6.81351C351.465 7.10399 351.767 7.48682 351.956 7.92494C352.178 8.50303 352.283 9.11778 352.265 9.73497V11.1957C352.259 11.3459 352.295 11.4947 352.37 11.6263C352.444 11.7578 352.554 11.8669 352.687 11.9419C353.031 12.1373 353.426 12.231 353.823 12.2119H354.278C354.397 12.2039 354.516 12.2259 354.624 12.276C354.732 12.326 354.825 12.4024 354.895 12.4977C355.086 12.7846 355.177 13.1244 355.154 13.4662C355.154 14.2918 354.878 14.6888 354.326 14.6888C353.824 14.7066 353.323 14.6312 352.849 14.4665C352.403 14.3006 352.042 13.9698 351.843 13.5456C351.61 13.9526 351.244 14.2714 350.804 14.4506C350.281 14.6233 349.732 14.704 349.18 14.6888H343.141C343.021 14.6983 342.901 14.6787 342.79 14.6316C342.68 14.5845 342.583 14.5114 342.508 14.4188C342.35 14.1036 342.283 13.7524 342.314 13.4027C342.279 13.0884 342.347 12.7715 342.508 12.4977C342.588 12.4129 342.686 12.3473 342.796 12.306C342.906 12.2647 343.024 12.2488 343.141 12.2595H347.752C348.016 12.2878 348.283 12.2878 348.547 12.2595C348.721 12.2366 348.885 12.1649 349.018 12.0531C349.135 11.9436 349.21 11.7977 349.229 11.6403C349.258 11.4189 349.258 11.1948 349.229 10.9734V10.0525C349.247 9.83833 349.216 9.62287 349.137 9.4222C349.058 9.22152 348.934 9.04079 348.774 8.89347C348.364 8.60988 347.862 8.48026 347.362 8.52828H344.278C344.148 8.52828 344.083 8.52828 344.083 8.32188V6.73413C344.093 6.61962 344.145 6.51248 344.229 6.43245L344.489 6.16254L348.888 1.06586C348.926 1.03346 348.975 1.01563 349.026 1.01562C349.077 1.01562 349.126 1.03346 349.164 1.06586L350.787 2.47896C350.812 2.49218 350.834 2.51015 350.852 2.53181C350.869 2.55347 350.882 2.57837 350.89 2.60503C350.898 2.63169 350.9 2.65957 350.896 2.68701C350.892 2.71445 350.883 2.74089 350.869 2.76475L347.898 6.03552Z" fill="#344B61"/>
<path d="M355.162 7.44616C355.64 6.9811 356.187 6.59023 356.786 6.2871C357.481 5.96964 358.243 5.81732 359.01 5.84253C359.796 5.82189 360.579 5.95132 361.315 6.22359C361.9 6.45182 362.423 6.81067 362.841 7.27151C363.232 7.73757 363.52 8.27834 363.685 8.85926C363.871 9.50508 363.964 10.1731 363.961 10.8439V11.1615C363.971 11.3147 364.016 11.4637 364.092 11.5982C364.167 11.7326 364.272 11.8491 364.399 11.9395C364.731 12.1367 365.116 12.2309 365.503 12.2094H365.974C366.093 12.2014 366.212 12.2235 366.32 12.2735C366.429 12.3236 366.522 12.3999 366.591 12.4952C366.755 12.7742 366.829 13.0953 366.802 13.4161C366.802 14.2417 366.526 14.6545 365.974 14.6545C365.46 14.6633 364.949 14.5827 364.464 14.4164C364.004 14.2191 363.634 13.863 363.425 13.4161C363.179 13.8788 362.761 14.2312 362.256 14.4005C361.679 14.5764 361.076 14.6621 360.471 14.6545H354.221C354.102 14.6625 353.982 14.6405 353.874 14.5904C353.766 14.5404 353.673 14.4641 353.604 14.3688C353.493 14.0797 353.47 13.7652 353.539 13.4637C353.516 13.1349 353.584 12.8061 353.734 12.5111C353.801 12.4092 353.896 12.3273 354.007 12.2741C354.119 12.2209 354.243 12.1986 354.367 12.2094H359.464C359.734 12.2384 360.006 12.2384 360.276 12.2094C360.458 12.1761 360.627 12.0936 360.763 11.9712C360.885 11.836 360.969 11.6718 361.006 11.4949C361.035 11.2523 361.035 11.0072 361.006 10.7646C361.009 10.4498 360.976 10.1357 360.909 9.82779C360.854 9.5447 360.732 9.27822 360.552 9.04979C360.391 8.82447 360.173 8.64392 359.919 8.52583C359.602 8.38976 359.258 8.32466 358.912 8.3353C358.507 8.32549 358.106 8.41271 357.743 8.58934C357.396 8.75632 357.073 8.97009 356.786 9.22444C356.769 9.24439 356.748 9.26045 356.724 9.27148C356.7 9.28251 356.674 9.28824 356.648 9.28824C356.621 9.28824 356.595 9.28251 356.571 9.27148C356.548 9.26045 356.527 9.24439 356.51 9.22444L355.292 7.79547C355.162 7.66845 355.146 7.57318 355.292 7.49379" fill="#344B61"/>
<path d="M366.034 14.64C365.82 14.6521 365.607 14.6083 365.417 14.513C365.339 14.4401 365.279 14.3506 365.243 14.2514C365.206 14.1522 365.194 14.0461 365.206 13.9414C365.192 13.7617 365.192 13.5812 365.206 13.4016C365.206 13.1899 365.255 12.9993 365.352 12.83C365.405 12.6701 365.494 12.5238 365.612 12.4013C365.654 12.3424 365.71 12.2943 365.775 12.2612C365.84 12.228 365.912 12.2107 365.985 12.2107H366.699C366.973 12.232 367.245 12.1528 367.462 11.9885C367.637 11.7429 367.718 11.4449 367.69 11.1469V1.17588C367.687 1.14817 367.691 1.12026 367.701 1.09411C367.71 1.06797 367.726 1.04423 367.746 1.02455C367.766 1.00488 367.79 0.989757 367.817 0.980241C367.844 0.970725 367.872 0.96705 367.901 0.969475H370.417C370.547 0.969475 370.612 0.969475 370.612 1.17588V12.1155C370.673 12.8002 370.477 13.4832 370.06 14.0367C369.813 14.2608 369.521 14.4306 369.201 14.5347C368.882 14.6387 368.544 14.6747 368.209 14.64H366.034Z" fill="#344B61"/>
<path d="M375.811 0.970703H373.344C373.227 0.970703 373.133 1.06311 373.133 1.17711V14.4348C373.133 14.5488 373.227 14.6412 373.344 14.6412H375.811C375.928 14.6412 376.022 14.5488 376.022 14.4348V1.17711C376.022 1.06311 375.928 0.970703 375.811 0.970703Z" fill="#344B61"/>
<path d="M380.161 18.7694C380.015 18.7694 379.95 18.7694 379.95 18.563V16.5465C379.95 16.4036 379.95 16.3401 380.161 16.3401H382.531C382.775 16.358 383.019 16.358 383.262 16.3401C383.471 16.3171 383.669 16.2342 383.83 16.102C384.005 15.9745 384.136 15.7969 384.203 15.5939C384.305 15.3084 384.349 15.0065 384.333 14.7047H383.473C382.734 14.7105 381.996 14.6627 381.265 14.5618C380.686 14.4786 380.132 14.2727 379.642 13.9585C379.17 13.6454 378.803 13.2037 378.587 12.6883C378.327 11.9921 378.206 11.2538 378.23 10.5131C378.208 9.76972 378.34 9.02979 378.619 8.33786C378.836 7.79135 379.181 7.30202 379.626 6.90889C380.042 6.54702 380.535 6.28115 381.07 6.13089C381.597 5.97657 382.144 5.89638 382.694 5.89273C383.281 5.88431 383.866 5.95918 384.431 6.11501C384.981 6.24831 385.49 6.51006 385.914 6.87783C386.338 7.24561 386.665 7.70846 386.866 8.22672C387.117 8.91947 387.238 9.65108 387.223 10.3861V15.1493C387.266 15.6593 387.2 16.1723 387.029 16.656C386.859 17.1397 386.587 17.5836 386.233 17.9596C385.372 18.6467 384.271 18.9772 383.165 18.8805L380.161 18.7694ZM382.759 8.27435C382.517 8.25846 382.275 8.30082 382.055 8.39772C381.834 8.49462 381.641 8.64308 381.492 8.83006C381.167 9.29558 381.012 9.85531 381.054 10.4178C381.019 10.6838 381.045 10.954 381.129 11.2092C381.213 11.4644 381.354 11.6984 381.541 11.8944C381.911 12.1486 382.356 12.2769 382.807 12.2596H384.431V10.2908C384.431 8.97296 383.895 8.30611 382.807 8.30611L382.759 8.27435ZM406.655 11.9897C406.842 11.7495 406.929 11.4487 406.898 11.1482V6.38493C406.898 6.24203 406.898 6.17852 407.109 6.17852H409.609C409.755 6.17852 409.82 6.17852 409.82 6.38493V12.1167C409.881 12.8014 409.685 13.4844 409.268 14.0379C409.013 14.264 408.712 14.4348 408.385 14.5388C408.057 14.6428 407.711 14.6777 407.369 14.6412H396.687C396.352 14.6759 396.014 14.64 395.695 14.5359C395.376 14.4318 395.083 14.262 394.836 14.0379C394.42 13.4844 394.224 12.8014 394.285 12.1167V7.67101C394.285 7.52811 394.285 7.4646 394.479 7.4646H396.996C397.024 7.46218 397.052 7.46585 397.079 7.47537C397.106 7.48488 397.13 7.50001 397.15 7.51968C397.17 7.53935 397.186 7.5631 397.196 7.58924C397.205 7.61538 397.209 7.64329 397.207 7.67101V11.1482C397.179 11.4461 397.259 11.7441 397.434 11.9897C397.651 12.154 397.923 12.2333 398.197 12.212H405.892C406.166 12.2365 406.439 12.1569 406.655 11.9897ZM399.398 5.33702C399.268 5.33702 399.203 5.33702 399.203 5.13061V3.1618C399.201 3.13617 399.204 3.11031 399.213 3.08607C399.222 3.06184 399.236 3.03983 399.255 3.02162C399.273 3.00342 399.296 2.98946 399.321 2.98075C399.345 2.97205 399.372 2.96881 399.398 2.97127H401.46C401.606 2.97127 401.671 2.97127 401.671 3.1618V5.13061C401.671 5.27351 401.671 5.33702 401.46 5.33702H399.398ZM402.645 5.33702C402.499 5.33702 402.434 5.33702 402.434 5.13061V3.1618C402.434 3.03478 402.434 2.97127 402.645 2.97127H404.723C404.749 2.96881 404.775 2.97205 404.8 2.98075C404.825 2.98946 404.847 3.00342 404.866 3.02162C404.885 3.03983 404.899 3.06184 404.908 3.08607C404.917 3.11031 404.92 3.13617 404.917 3.1618V5.13061C404.917 5.27351 404.918 5.33702 404.723 5.33702H402.645ZM417.872 12.212H419.739C420.008 12.234 420.275 12.1544 420.486 11.9897C420.673 11.7495 420.76 11.4487 420.729 11.1482V1.17711C420.729 1.03421 420.729 0.970703 420.94 0.970703H423.44C423.586 0.970703 423.651 0.970703 423.651 1.17711V12.1167C423.712 12.8014 423.516 13.4844 423.099 14.0379C422.853 14.262 422.56 14.4318 422.241 14.5359C421.921 14.64 421.583 14.6759 421.248 14.6412H411.671C411.541 14.6412 411.46 14.6412 411.46 14.4507V12.4184C411.457 12.3907 411.461 12.3628 411.471 12.3366C411.48 12.3105 411.496 12.2867 411.516 12.2671C411.536 12.2474 411.56 12.2323 411.587 12.2227C411.614 12.2132 411.642 12.2095 411.671 12.212H414.917V3.9398C414.915 3.91416 414.918 3.8883 414.927 3.86407C414.936 3.83984 414.95 3.81783 414.969 3.79962C414.988 3.78141 415.01 3.76746 415.035 3.75875C415.06 3.75005 415.086 3.74681 415.112 3.74927H417.628C417.775 3.74927 417.839 3.74927 417.839 3.9398L417.872 12.212ZM426.119 1.17711C426.119 1.03421 426.119 0.970703 426.33 0.970703H428.797C428.943 0.970703 429.008 0.970703 429.008 1.17711V11.1482C428.98 11.4461 429.061 11.7441 429.235 11.9897C429.453 12.1527 429.725 12.2318 429.998 12.212H430.55C430.671 12.2041 430.792 12.2279 430.901 12.2809C431.009 12.3339 431.101 12.4143 431.167 12.5136C431.301 12.817 431.37 13.1439 431.37 13.4742C431.37 13.8046 431.301 14.1314 431.167 14.4348C431.082 14.5103 430.982 14.5676 430.873 14.6032C430.764 14.6387 430.648 14.6517 430.534 14.6412H428.505C428.17 14.6759 427.832 14.64 427.513 14.5359C427.193 14.4318 426.901 14.262 426.654 14.0379C426.245 13.4807 426.05 12.8006 426.102 12.1167L426.119 1.17711Z" fill="#344B61"/>
<path d="M432.234 6.22759C432.234 6.08469 432.234 6.02118 432.429 6.02118H434.912C435.042 6.02118 435.107 6.02118 435.107 6.22759V6.83094C435.775 6.54813 436.465 6.31461 437.169 6.13232C437.953 5.93423 438.761 5.83813 439.571 5.84653C440.947 5.74716 442.31 6.16131 443.386 7.00559C443.856 7.49535 444.214 8.07673 444.438 8.71156C444.662 9.34639 444.746 10.0203 444.685 10.6892V10.9273C444.694 11.0012 444.694 11.0758 444.685 11.1496C444.694 11.3049 444.739 11.4561 444.818 11.5912C444.897 11.7262 445.007 11.8414 445.139 11.9276C445.474 12.1336 445.865 12.2334 446.259 12.2134H446.714C446.833 12.2054 446.953 12.2275 447.061 12.2775C447.169 12.3276 447.262 12.4039 447.331 12.4992C447.495 12.7782 447.569 13.0993 447.542 13.4201C447.542 14.2457 447.266 14.6585 446.714 14.6585C446.194 14.6638 445.677 14.5777 445.188 14.4045C444.726 14.208 444.359 13.8438 444.165 13.3883C443.886 13.8808 443.419 14.2458 442.867 14.4045C442.124 14.5891 441.36 14.6745 440.594 14.6585H435.967H435.318C435.13 14.6368 434.945 14.5942 434.766 14.5315C434.62 14.4997 434.493 14.4145 434.409 14.2934C434.181 14.4786 433.906 14.5994 433.614 14.6427C433.237 14.6981 432.858 14.7246 432.477 14.7221H430.643C430.527 14.7284 430.411 14.7087 430.304 14.6647C430.197 14.6207 430.102 14.5534 430.026 14.468C429.86 14.1725 429.786 13.8356 429.815 13.4995C429.777 13.1597 429.845 12.8166 430.01 12.5151C430.088 12.4283 430.186 12.3612 430.296 12.3198C430.407 12.2783 430.525 12.2636 430.643 12.2769H431.454C431.626 12.2803 431.795 12.2363 431.941 12.1499C432.058 12.0609 432.143 11.9388 432.185 11.8006C432.239 11.6249 432.271 11.4438 432.282 11.2608V10.5463L432.234 6.22759ZM438.954 8.27579C438.267 8.2749 437.584 8.37116 436.925 8.56158C436.307 8.73137 435.7 8.93817 435.107 9.18081V11.88V12.2452H439.198H440.448C440.71 12.2364 440.966 12.1656 441.195 12.0388C441.378 11.9221 441.506 11.7395 441.552 11.5307C441.703 10.9042 441.703 10.2519 441.552 9.62537C441.483 9.35282 441.337 9.10498 441.13 8.91089C440.9 8.70327 440.621 8.55579 440.318 8.4822C439.894 8.37771 439.457 8.32965 439.019 8.3393" fill="#344B61"/>
<path d="M446.634 14.64C446.52 14.646 446.406 14.6279 446.299 14.5868C446.193 14.5457 446.097 14.4826 446.017 14.4018C445.862 14.1258 445.794 13.8107 445.823 13.4968C445.823 12.6394 446.099 12.2107 446.634 12.2107H447.917C448.186 12.2327 448.453 12.1532 448.664 11.9885C448.851 11.7483 448.938 11.4475 448.907 11.1469V6.3837C448.907 6.2408 448.907 6.17729 449.102 6.17729H451.586C451.715 6.17729 451.78 6.17729 451.78 6.3837V12.1155C451.841 12.8002 451.645 13.4832 451.228 14.0367C450.986 14.2613 450.696 14.4316 450.379 14.5357C450.062 14.6399 449.726 14.6755 449.394 14.64H446.634ZM447.592 4.14497C447.446 4.14497 447.381 4.14497 447.381 3.95444V1.96976C447.381 1.84274 447.381 1.77923 447.592 1.77923H449.654C449.68 1.77677 449.706 1.78001 449.731 1.78871C449.756 1.79742 449.779 1.81138 449.797 1.82958C449.816 1.84779 449.83 1.8698 449.839 1.89403C449.848 1.91827 449.851 1.94412 449.849 1.96976V3.93857C449.851 3.9642 449.848 3.99006 449.839 4.01429C449.83 4.03852 449.816 4.06053 449.797 4.07874C449.779 4.09695 449.756 4.1109 449.731 4.11961C449.706 4.12832 449.68 4.13155 449.654 4.1291L447.592 4.14497ZM450.758 4.14497C450.628 4.14497 450.547 4.14497 450.547 3.95444V1.96976C450.547 1.84274 450.628 1.77923 450.758 1.77923H452.836C452.982 1.77923 453.047 1.77923 453.047 1.96976V3.93857C453.047 4.06559 453.047 4.1291 452.836 4.1291L450.758 4.14497ZM460.222 12.2107H462.105C462.373 12.2296 462.639 12.1504 462.852 11.9885C463.039 11.7483 463.126 11.4475 463.095 11.1469V1.17588C463.095 1.03298 463.095 0.969475 463.29 0.969475H465.806C465.835 0.96705 465.863 0.970725 465.89 0.980241C465.917 0.989757 465.941 1.00488 465.961 1.02455C465.981 1.04423 465.997 1.06797 466.006 1.09411C466.016 1.12026 466.02 1.14817 466.017 1.17588V12.1155C466.074 12.8022 465.872 13.4854 465.449 14.0367C465.203 14.2608 464.91 14.4306 464.591 14.5347C464.271 14.6387 463.933 14.6747 463.598 14.64H454.037C453.891 14.64 453.826 14.64 453.826 14.4495V12.4171C453.826 12.2743 453.826 12.2107 454.037 12.2107H457.284V3.93857C457.284 3.81155 457.284 3.74804 457.495 3.74804H460.011C460.037 3.74558 460.063 3.74882 460.088 3.75752C460.113 3.76623 460.136 3.78019 460.154 3.79839C460.173 3.8166 460.187 3.83861 460.196 3.86284C460.205 3.88708 460.208 3.91293 460.206 3.93857L460.222 12.2107Z" fill="#344B61"/>
<path d="M471.143 0.970703H468.676C468.559 0.970703 468.465 1.06311 468.465 1.17711V14.4348C468.465 14.5488 468.559 14.6412 468.676 14.6412H471.143C471.26 14.6412 471.354 14.5488 471.354 14.4348V1.17711C471.354 1.06311 471.26 0.970703 471.143 0.970703Z" fill="#344B61"/>
<path d="M484.912 14.7859C484.336 14.7965 483.761 14.7216 483.208 14.5636C482.705 14.4294 482.243 14.1789 481.86 13.8332C481.779 13.9618 481.675 14.0748 481.552 14.1666L481.227 14.4366C481.123 14.5458 481.036 14.6687 480.967 14.8017C480.895 14.9838 480.862 15.1783 480.87 15.3733V18.7711H477.948V14.9605C477.932 14.5783 477.987 14.1964 478.11 13.8332C478.3 13.3423 478.64 12.9207 479.084 12.6265L479.669 12.2455C479.843 12.1404 480.007 12.018 480.156 11.8803C480.294 11.7002 480.379 11.4857 480.399 11.2611C480.391 11.1342 480.391 11.0069 480.399 10.88V10.4513C480.376 9.70412 480.503 8.95978 480.773 8.26022C480.986 7.71626 481.331 7.23126 481.779 6.84712C482.2 6.50235 482.693 6.25293 483.224 6.11676C484.362 5.82046 485.56 5.82046 486.698 6.11676C487.235 6.24973 487.734 6.49937 488.159 6.84712C488.596 7.23666 488.936 7.72044 489.149 8.26022C489.418 8.95978 489.545 9.70412 489.522 10.4513C489.531 10.5411 489.531 10.6315 489.522 10.7212V10.9753C489.529 11.3116 489.662 11.6339 489.896 11.8803C490.137 12.0888 490.451 12.197 490.772 12.182H491.357C491.476 12.1755 491.595 12.1982 491.702 12.2481C491.81 12.298 491.903 12.3735 491.974 12.4678C492.132 12.7488 492.206 13.0683 492.185 13.3887C492.185 14.2143 491.909 14.6271 491.357 14.6271H490.61C490.356 14.5986 490.106 14.5455 489.863 14.4683C489.325 14.3009 488.865 13.9521 488.565 13.4839C488.141 13.9755 487.575 14.3299 486.941 14.5001C486.278 14.6972 485.589 14.7935 484.896 14.7859H484.912ZM484.896 8.2761C483.776 8.2761 483.273 8.95883 483.273 10.3084C483.214 10.8701 483.363 11.4337 483.695 11.8962C484.048 12.1842 484.493 12.342 484.953 12.342C485.412 12.342 485.858 12.1842 486.211 11.8962C486.535 11.4308 486.685 10.8695 486.633 10.3084C486.633 8.95883 486.065 8.2761 485.009 8.2761" fill="#344B61"/>
<path d="M493.618 6.38414C493.618 6.24124 493.618 6.17773 493.813 6.17773H496.297C496.427 6.17773 496.492 6.17773 496.492 6.38414V11.1474C496.502 11.3046 496.548 11.4577 496.626 11.5951C496.705 11.7325 496.814 11.8509 496.946 11.9413C497.278 12.1523 497.671 12.2525 498.066 12.2271H498.537C498.656 12.2206 498.775 12.2433 498.883 12.2932C498.99 12.3431 499.084 12.4186 499.154 12.5129C499.313 12.7939 499.386 13.1134 499.365 13.4338C499.365 14.2594 499.089 14.6563 498.537 14.6563C498.076 14.6694 497.616 14.6105 497.173 14.4817C496.763 14.3287 496.422 14.0354 496.216 13.656C496.12 13.8514 495.984 14.0255 495.816 14.1674C495.649 14.3094 495.453 14.4164 495.242 14.4817C494.663 14.619 494.067 14.6777 493.472 14.6563H491.346C491.231 14.6634 491.117 14.6458 491.01 14.6046C490.903 14.5635 490.807 14.4998 490.729 14.4182C490.573 14.1309 490.505 13.8055 490.534 13.4814C490.506 13.1471 490.573 12.8118 490.729 12.5129C490.798 12.4176 490.891 12.3412 490.999 12.2912C491.107 12.2411 491.226 12.2191 491.346 12.2271H492.628C493.066 12.2271 493.342 12.1 493.456 11.8619C493.582 11.4448 493.637 11.0103 493.618 10.5758V6.38414ZM492.32 18.7686C492.291 18.771 492.263 18.7673 492.236 18.7578C492.209 18.7483 492.185 18.7332 492.165 18.7135C492.145 18.6938 492.129 18.6701 492.12 18.644C492.11 18.6178 492.106 18.5899 492.109 18.5622V16.641C492.109 16.514 492.19 16.4505 492.32 16.4505H494.381C494.407 16.448 494.434 16.4513 494.459 16.46C494.483 16.4687 494.506 16.4826 494.525 16.5008C494.543 16.519 494.557 16.541 494.566 16.5653C494.575 16.5895 494.579 16.6154 494.576 16.641V18.6098C494.576 18.7527 494.576 18.8162 494.381 18.8162L492.32 18.7686ZM495.485 18.7686C495.355 18.7686 495.29 18.7686 495.29 18.5622V16.641C495.288 16.6154 495.291 16.5895 495.3 16.5653C495.309 16.541 495.323 16.519 495.342 16.5008C495.36 16.4826 495.383 16.4687 495.408 16.46C495.432 16.4513 495.459 16.448 495.485 16.4505H497.563C497.709 16.4505 497.774 16.4505 497.774 16.641V18.6098C497.774 18.7527 497.774 18.8162 497.563 18.8162L495.485 18.7686Z" fill="#344B61"/>
<path d="M499.508 12.2107C499.71 12.2265 499.912 12.1701 500.076 12.052C500.218 11.9304 500.329 11.7782 500.4 11.6074C500.473 11.397 500.517 11.1781 500.53 10.9564V10.1625V1.17588C500.528 1.14817 500.532 1.12026 500.541 1.09411C500.551 1.06797 500.566 1.04423 500.587 1.02455C500.607 1.00488 500.631 0.989757 500.658 0.980241C500.684 0.970725 500.713 0.96705 500.741 0.969475H503.209C503.237 0.96705 503.266 0.970725 503.292 0.980241C503.319 0.989757 503.343 1.00488 503.364 1.02455C503.384 1.04423 503.399 1.06797 503.409 1.09411C503.419 1.12026 503.422 1.14817 503.42 1.17588V6.82827C504.081 6.54056 504.765 6.30689 505.465 6.12966C506.213 5.93883 506.982 5.84278 507.754 5.84387C509.127 5.74659 510.487 6.16699 511.553 7.0188C512.026 7.50403 512.39 8.08157 512.619 8.71361C512.848 9.34565 512.939 10.018 512.884 10.6865V10.9247C512.876 10.9932 512.876 11.0625 512.884 11.1311C512.894 11.2865 512.939 11.4379 513.014 11.5749C513.09 11.712 513.195 11.8314 513.322 11.9249C513.662 12.1331 514.059 12.233 514.459 12.2107H514.929C515.049 12.2042 515.167 12.227 515.275 12.2769C515.383 12.3268 515.476 12.4023 515.546 12.4965C515.754 12.7788 515.868 13.1172 515.871 13.4651C515.871 14.2907 515.595 14.6876 515.043 14.6876C514.519 14.6988 513.996 14.6182 513.501 14.4495C513.04 14.2458 512.67 13.8845 512.462 13.4333C512.321 13.6809 512.13 13.8984 511.901 14.0729C511.673 14.2474 511.411 14.3754 511.131 14.4495C510.371 14.6282 509.591 14.7083 508.809 14.6876H503.939C503.723 14.7107 503.504 14.6855 503.298 14.614C503.093 14.5425 502.907 14.4266 502.754 14.2748C502.498 14.4936 502.169 14.6124 501.829 14.6082C501.337 14.6403 500.844 14.6403 500.352 14.6082H498.728C498.614 14.6177 498.498 14.6011 498.391 14.5598C498.284 14.5185 498.189 14.4536 498.111 14.3701C497.945 14.0746 497.872 13.7377 497.9 13.4016C497.855 13.0615 497.923 12.7161 498.095 12.4171C498.173 12.3303 498.272 12.2633 498.382 12.2218C498.492 12.1804 498.611 12.1657 498.728 12.179L499.508 12.2107ZM507.267 8.27312C506.575 8.27225 505.886 8.3685 505.222 8.55892C504.614 8.72844 504.017 8.93525 503.436 9.17814V11.4327C503.454 11.6918 503.454 11.9517 503.436 12.2107H507.527H508.777C509.039 12.202 509.295 12.1312 509.524 12.0043C509.617 11.9494 509.697 11.8757 509.758 11.7881C509.82 11.7004 509.862 11.6009 509.881 11.4963C510.022 10.8686 510.022 10.2186 509.881 9.59095C509.802 9.31888 509.651 9.07222 509.443 8.87647C509.22 8.66891 508.946 8.52123 508.647 8.44778C508.223 8.34213 507.786 8.29404 507.348 8.30488L507.267 8.27312ZM506.699 4.17673C506.673 4.17919 506.646 4.17595 506.622 4.16724C506.597 4.15854 506.574 4.14458 506.556 4.12637C506.537 4.10816 506.523 4.08616 506.514 4.06192C506.505 4.03769 506.502 4.01183 506.504 3.9862V1.96976C506.502 1.94412 506.505 1.91827 506.514 1.89403C506.523 1.8698 506.537 1.84779 506.556 1.82958C506.574 1.81138 506.597 1.79742 506.622 1.78871C506.646 1.78001 506.673 1.77677 506.699 1.77923H509.248C509.394 1.77923 509.459 1.77923 509.459 1.96976V3.93857C509.459 4.06559 509.459 4.1291 509.248 4.1291L506.699 4.17673Z" fill="#344B61"/>
<path d="M519.302 13.6406C519.206 13.8314 519.072 14.0014 518.907 14.1405C518.743 14.2796 518.551 14.385 518.344 14.4503C517.778 14.5952 517.193 14.6594 516.607 14.6409H514.984C514.77 14.661 514.555 14.6167 514.367 14.5138C514.221 14.4345 514.156 14.2439 514.156 13.9423C514.141 13.7573 514.141 13.5715 514.156 13.3865C514.172 13.1911 514.216 12.9988 514.286 12.815C514.351 12.657 514.444 12.5117 514.562 12.3863C514.614 12.3313 514.676 12.2874 514.746 12.2573C514.816 12.2273 514.891 12.2117 514.968 12.2116H515.65C516.072 12.2116 516.348 12.1005 516.461 11.8623C516.606 11.4602 516.667 11.0336 516.64 10.608V6.38457C516.64 6.26813 516.737 6.20462 516.932 6.19404H519.351C519.497 6.19404 519.562 6.19404 519.562 6.40045V11.1637C519.572 11.3191 519.616 11.4705 519.692 11.6076C519.768 11.7446 519.873 11.864 520 11.9576C520.334 12.1635 520.726 12.2634 521.12 12.2434H521.607C521.726 12.2383 521.844 12.2617 521.952 12.3115C522.059 12.3613 522.153 12.436 522.224 12.5292C522.376 12.8121 522.444 13.1313 522.419 13.4501C522.419 14.2757 522.143 14.6726 521.607 14.6726C521.146 14.6869 520.686 14.6279 520.244 14.498C519.826 14.3496 519.479 14.0556 519.27 13.6723L519.302 13.6406ZM516.818 4.14584C516.792 4.1483 516.766 4.14506 516.741 4.13636C516.716 4.12765 516.694 4.11369 516.675 4.09549C516.656 4.07728 516.642 4.05527 516.633 4.03104C516.624 4.0068 516.621 3.98094 516.624 3.95531V1.97062C516.621 1.94499 516.624 1.91913 516.633 1.8949C516.642 1.87067 516.656 1.84866 516.675 1.83045C516.694 1.81224 516.716 1.79829 516.741 1.78958C516.766 1.78088 516.792 1.77764 516.818 1.78009H519.383C519.409 1.77764 519.436 1.78088 519.461 1.78958C519.485 1.79829 519.508 1.81224 519.527 1.83045C519.545 1.84866 519.559 1.87067 519.568 1.8949C519.577 1.91913 519.581 1.94499 519.578 1.97062V3.93943C519.581 3.96507 519.577 3.99093 519.568 4.01516C519.559 4.03939 519.545 4.0614 519.527 4.07961C519.508 4.09782 519.485 4.11177 519.461 4.12048C519.436 4.12918 519.409 4.13242 519.383 4.12996L516.818 4.14584Z" fill="#344B61"/>
<path d="M521.534 14.64C521.42 14.646 521.305 14.6279 521.199 14.5868C521.093 14.5457 520.996 14.4826 520.917 14.4018C520.761 14.1148 520.699 13.7878 520.739 13.4651C520.739 12.6077 521.015 12.179 521.55 12.179H522.833C523.102 12.201 523.369 12.1214 523.579 11.9567C523.767 11.7166 523.854 11.4158 523.823 11.1152V6.35195C523.823 6.20905 523.823 6.14554 524.018 6.14554H526.501C526.631 6.14554 526.696 6.14554 526.696 6.35195V12.0837C526.757 12.7685 526.561 13.4515 526.144 14.0049C525.902 14.2295 525.612 14.3998 525.295 14.504C524.978 14.6082 524.642 14.6437 524.31 14.6082L521.534 14.64ZM522.492 4.14497C522.346 4.14497 522.281 4.14497 522.281 3.95444V1.96976C522.281 1.84274 522.281 1.77923 522.492 1.77923H524.553C524.58 1.77677 524.606 1.78001 524.631 1.78871C524.656 1.79742 524.678 1.81138 524.697 1.82958C524.715 1.84779 524.73 1.8698 524.739 1.89403C524.747 1.91827 524.751 1.94412 524.748 1.96976V3.93857C524.751 3.9642 524.747 3.99006 524.739 4.01429C524.73 4.03852 524.715 4.06053 524.697 4.07874C524.678 4.09695 524.656 4.1109 524.631 4.11961C524.606 4.12832 524.58 4.13155 524.553 4.1291L522.492 4.14497ZM525.657 4.14497C525.527 4.14497 525.446 4.14497 525.446 3.95444V1.96976C525.446 1.84274 525.527 1.77923 525.657 1.77923H527.735C527.881 1.77923 527.946 1.77923 527.946 1.96976V3.93857C527.946 4.06559 527.946 4.1291 527.735 4.1291L525.657 4.14497ZM539.943 5.84387V4.9706C539.94 4.94289 539.944 4.91498 539.954 4.88883C539.964 4.86269 539.979 4.83895 539.999 4.81928C540.019 4.7996 540.044 4.78448 540.07 4.77496C540.097 4.76545 540.126 4.76177 540.154 4.7642H542.654C542.682 4.76177 542.711 4.76545 542.738 4.77496C542.764 4.78448 542.789 4.7996 542.809 4.81928C542.829 4.83895 542.844 4.86269 542.854 4.88883C542.864 4.91498 542.867 4.94289 542.865 4.9706V11.1469C542.834 11.4475 542.921 11.7483 543.108 11.9885C543.319 12.1532 543.586 12.2327 543.855 12.2107H544.488C545.04 12.2107 545.316 12.6236 545.316 13.4333C545.349 13.7678 545.281 14.1043 545.121 14.4018C545.042 14.4866 544.943 14.5522 544.833 14.5935C544.724 14.6348 544.605 14.6507 544.488 14.64H542.345C541.787 14.6781 541.228 14.5741 540.722 14.3383C540.519 14.2062 540.347 14.0329 540.218 13.8302C540.089 13.6275 540.007 13.4001 539.975 13.1634C539.663 13.4083 539.304 13.5917 538.92 13.7032C538.516 13.8267 538.094 13.8857 537.67 13.8779C537.153 13.8855 536.637 13.8104 536.144 13.6556C535.666 13.5215 535.224 13.2887 534.846 12.9729C534.466 12.642 534.171 12.2287 533.985 11.7662C533.748 11.1919 533.637 10.5751 533.66 9.95614C533.637 9.27235 533.759 8.59128 534.018 7.95557C534.212 7.47811 534.521 7.05386 534.92 6.71923C535.319 6.38461 535.795 6.1496 536.307 6.0344C536.805 5.90769 537.318 5.84367 537.833 5.84387H539.943ZM535.771 3.3511C535.743 3.35352 535.714 3.34985 535.687 3.34033C535.661 3.33082 535.636 3.31569 535.616 3.29602C535.596 3.27635 535.581 3.2526 535.571 3.22646C535.561 3.20032 535.557 3.17241 535.56 3.14469V1.17588C535.56 1.03298 535.56 0.969475 535.771 0.969475H537.816C537.962 0.969475 538.027 0.969475 538.027 1.17588V3.14469C538.03 3.17241 538.026 3.20032 538.016 3.22646C538.007 3.2526 537.991 3.27635 537.971 3.29602C537.951 3.31569 537.927 3.33082 537.9 3.34033C537.873 3.34985 537.845 3.35352 537.816 3.3511H535.771ZM538.238 11.4486C538.696 11.4711 539.145 11.3172 539.488 11.0199C539.655 10.8347 539.782 10.618 539.86 10.3832C539.938 10.1483 539.966 9.90036 539.943 9.65447V8.27312H538.32C537.873 8.25576 537.433 8.38424 537.07 8.63831C536.894 8.80837 536.76 9.01551 536.678 9.2439C536.597 9.4723 536.569 9.71591 536.599 9.95614C536.576 10.1721 536.607 10.3903 536.689 10.592C536.771 10.7938 536.902 10.9733 537.07 11.1152C537.419 11.3458 537.834 11.4626 538.255 11.4486H538.238ZM538.953 3.3511C538.924 3.35352 538.896 3.34985 538.869 3.34033C538.842 3.33082 538.818 3.31569 538.798 3.29602C538.778 3.27635 538.762 3.2526 538.753 3.22646C538.743 3.20032 538.739 3.17241 538.742 3.14469V1.17588C538.742 1.03298 538.742 0.969475 538.953 0.969475H541.031C541.059 0.96705 541.087 0.970725 541.114 0.980241C541.141 0.989757 541.165 1.00488 541.185 1.02455C541.205 1.04423 541.221 1.06797 541.231 1.09411C541.24 1.12026 541.244 1.14817 541.242 1.17588V3.14469C541.244 3.17241 541.24 3.20032 541.231 3.22646C541.221 3.2526 541.205 3.27635 541.185 3.29602C541.165 3.31569 541.141 3.33082 541.114 3.34033C541.087 3.34985 541.059 3.35352 541.031 3.3511H538.953Z" fill="#344B61"/>
<path d="M549.067 13.6408C548.97 13.8332 548.833 14.0042 548.665 14.1434C548.498 14.2826 548.303 14.3871 548.093 14.4505C547.532 14.5957 546.953 14.6599 546.373 14.6411H544.749C544.535 14.6592 544.321 14.615 544.132 14.514C544.003 14.4399 543.938 14.2494 543.938 13.9425C543.922 13.7575 543.922 13.5717 543.938 13.3867C543.967 13.192 544.016 13.0006 544.084 12.8152C544.143 12.6582 544.231 12.513 544.343 12.3865C544.398 12.331 544.464 12.287 544.536 12.257C544.609 12.227 544.687 12.2116 544.765 12.2118H545.447C545.869 12.2118 546.145 12.1007 546.259 11.8625C546.395 11.4585 546.45 11.0326 546.421 10.6082V6.38476C546.421 6.27362 546.535 6.21011 546.73 6.19423H549.149C549.177 6.19181 549.205 6.19548 549.232 6.205C549.259 6.21452 549.283 6.22964 549.303 6.24931C549.323 6.26899 549.339 6.29273 549.349 6.31887C549.358 6.34502 549.362 6.37293 549.36 6.40064V11.1639C549.363 11.3208 549.404 11.4747 549.48 11.6128C549.556 11.7509 549.665 11.8692 549.798 11.9578C550.13 12.1688 550.523 12.269 550.918 12.2436H551.389C551.508 12.2356 551.627 12.2576 551.735 12.3077C551.843 12.3577 551.936 12.4341 552.006 12.5294C552.17 12.8083 552.243 13.1295 552.217 13.4503C552.217 14.2759 551.941 14.6728 551.389 14.6728C550.928 14.686 550.467 14.627 550.025 14.4982C549.614 14.3452 549.274 14.0519 549.067 13.6725V13.6408ZM546.243 3.01873C546.163 2.87515 546.092 2.72665 546.032 2.57416C545.976 2.38852 545.949 2.19595 545.951 2.00257C545.952 1.75744 546.001 1.51484 546.097 1.28809C546.185 1.0554 546.323 0.844132 546.502 0.668865C546.702 0.464254 546.946 0.306778 547.217 0.208418C547.56 0.0859395 547.923 0.0267214 548.288 0.0337651C548.691 0.0266784 549.09 0.108063 549.457 0.271928C549.761 0.403378 550.029 0.604939 550.236 0.859395C550.25 0.872734 550.262 0.888754 550.269 0.906491C550.277 0.924227 550.281 0.943313 550.281 0.962599C550.281 0.981884 550.277 1.00097 550.269 1.01871C550.262 1.03644 550.25 1.05246 550.236 1.0658L549.571 1.74853H549.392C549.25 1.62331 549.092 1.51658 548.921 1.43098C548.744 1.34852 548.549 1.31034 548.353 1.31984C548.237 1.30941 548.121 1.32391 548.011 1.36231C547.902 1.40071 547.802 1.46209 547.72 1.54213C547.638 1.61656 547.573 1.70778 547.531 1.80932C547.489 1.91085 547.47 2.02019 547.476 2.12959C547.466 2.33961 547.529 2.54692 547.655 2.71706C547.767 2.86285 547.912 2.98221 548.077 3.06637H550.236C550.236 3.06637 550.35 3.06637 550.35 3.20926V4.14604C550.35 4.2413 550.35 4.28893 550.236 4.28893H545.545C545.545 4.28893 545.415 4.28893 545.415 4.14604V3.20926C545.415 3.114 545.415 3.06637 545.545 3.06637L546.243 3.01873Z" fill="#344B61"/>
<path d="M553.622 6.38414C553.622 6.24124 553.622 6.17773 553.833 6.17773H556.301C556.447 6.17773 556.512 6.17773 556.512 6.38414V11.1474C556.522 11.3028 556.566 11.4542 556.642 11.5913C556.718 11.7283 556.823 11.8477 556.95 11.9413C557.284 12.1472 557.676 12.2471 558.07 12.2271H558.541C558.66 12.2191 558.78 12.2411 558.888 12.2912C558.996 12.3412 559.089 12.4176 559.158 12.5129C559.322 12.7918 559.396 13.113 559.369 13.4338C559.369 14.2594 559.093 14.6563 558.541 14.6563C558.085 14.6705 557.63 14.6115 557.194 14.4817C556.776 14.3333 556.429 14.0393 556.22 13.656C556.129 13.8548 555.994 14.0317 555.826 14.1744C555.658 14.317 555.46 14.4219 555.246 14.4817C554.667 14.6206 554.071 14.6794 553.476 14.6563H551.366C551.251 14.6658 551.136 14.6492 551.029 14.6079C550.922 14.5666 550.826 14.5016 550.749 14.4182C550.581 14.1346 550.508 13.8075 550.538 13.4814C550.51 13.1471 550.577 12.8118 550.733 12.5129C550.803 12.4151 550.899 12.3373 551.01 12.2871C551.121 12.2369 551.244 12.2162 551.366 12.2271H552.632C553.07 12.2271 553.346 12.1 553.46 11.8619C553.594 11.4465 553.649 11.0106 553.622 10.5758V6.38414ZM552.323 18.7686C552.194 18.7686 552.129 18.7686 552.129 18.5622V16.641C552.126 16.6154 552.129 16.5895 552.138 16.5653C552.147 16.541 552.162 16.519 552.18 16.5008C552.199 16.4826 552.221 16.4687 552.246 16.46C552.271 16.4513 552.297 16.448 552.323 16.4505H554.385C554.531 16.4505 554.596 16.4505 554.596 16.641V18.6098C554.596 18.7527 554.596 18.8162 554.385 18.8162L552.323 18.7686ZM555.57 18.7686C555.424 18.7686 555.359 18.7686 555.359 18.5622V16.641C555.359 16.514 555.359 16.4505 555.57 16.4505H557.648C557.674 16.448 557.701 16.4513 557.726 16.46C557.75 16.4687 557.773 16.4826 557.791 16.5008C557.81 16.519 557.824 16.541 557.833 16.5653C557.842 16.5895 557.845 16.6154 557.843 16.641V18.6098C557.843 18.7527 557.843 18.8162 557.648 18.8162L555.57 18.7686Z" fill="#344B61"/>
<path d="M558.581 14.6415C558.463 14.6528 558.344 14.6339 558.236 14.5865C558.128 14.5392 558.034 14.4651 557.964 14.3715C557.795 14.1003 557.721 13.7826 557.753 13.4665C557.727 13.1375 557.794 12.8076 557.948 12.5139C558.016 12.412 558.11 12.3301 558.222 12.2769C558.333 12.2237 558.458 12.2014 558.581 12.2122H560.594C560.39 11.7742 560.29 11.2964 560.302 10.815C560.29 10.3301 560.384 9.84826 560.578 9.40189C560.747 9.03565 560.996 8.71037 561.309 8.44924C561.605 8.21023 561.947 8.03202 562.315 7.92528C562.705 7.8118 563.109 7.753 563.516 7.75063C564.391 7.70187 565.255 7.96095 565.951 8.481C566.264 8.78301 566.505 9.14878 566.656 9.55222C566.808 9.95566 566.866 10.3868 566.828 10.815C566.834 11.0734 566.795 11.331 566.714 11.5771C566.643 11.7946 566.557 12.0069 566.455 12.2122C566.693 12.2458 566.937 12.2112 567.155 12.1126C567.374 12.014 567.559 11.8556 567.688 11.6565C567.909 11.2405 568.016 10.7753 567.997 10.3069C568.012 9.8439 567.923 9.38327 567.737 8.95732C567.585 8.59486 567.339 8.27747 567.023 8.03643C566.696 7.78521 566.32 7.60155 565.919 7.49659C565.447 7.37802 564.961 7.31932 564.474 7.32194C563.985 7.32919 563.497 7.3663 563.013 7.43308C562.503 7.51054 561.998 7.62194 561.503 7.76651H561.292C561.275 7.77124 561.257 7.7725 561.24 7.77022C561.222 7.76793 561.205 7.76215 561.19 7.75322C561.175 7.7443 561.162 7.73242 561.151 7.71832C561.141 7.70422 561.134 7.6882 561.13 7.67124L560.692 6.16288C560.677 6.0895 560.677 6.01398 560.692 5.9406C560.706 5.90606 560.727 5.87516 560.756 5.85035C560.784 5.82554 560.817 5.80751 560.854 5.7977C561.498 5.54844 562.16 5.34676 562.835 5.19435C563.598 5.03773 564.376 4.96319 565.156 4.97207C566.135 4.94569 567.11 5.10196 568.029 5.43252C568.718 5.68433 569.335 6.09246 569.831 6.62333C570.274 7.09932 570.597 7.67035 570.773 8.29047C570.969 8.93985 571.068 9.61382 571.065 10.291C571.074 10.9523 571.009 11.6126 570.87 12.2598C570.754 12.7637 570.515 13.2324 570.172 13.6253C569.832 14.001 569.394 14.2806 568.906 14.4351C568.269 14.6211 567.606 14.7068 566.942 14.6891L558.581 14.6415ZM563.549 9.4654C563.382 9.45711 563.214 9.48562 563.06 9.54882C562.905 9.61201 562.767 9.7083 562.656 9.83058C562.426 10.1376 562.317 10.5151 562.348 10.8944C562.315 11.2592 562.413 11.6238 562.623 11.9264C562.721 12.0396 562.843 12.1308 562.981 12.1938C563.118 12.2569 563.267 12.2902 563.419 12.2916H563.646C563.798 12.2935 563.949 12.2616 564.087 12.1984C564.225 12.1351 564.346 12.0421 564.442 11.9264C564.64 11.6189 564.731 11.2568 564.701 10.8944C564.725 10.5181 564.622 10.1446 564.409 9.83058C564.304 9.70896 564.172 9.61271 564.023 9.54936C563.874 9.48601 563.711 9.45727 563.549 9.4654ZM27.24 1.44727H0V10.8467H14.8213V55.4943H25.925V10.8467H41.7041V1.44727H27.24Z" fill="#344B61"/>
<path d="M59.5597 1.44777H74.5108C77.2877 1.42685 80.0414 1.94214 82.6142 2.96411C85.187 3.98608 87.5284 5.49463 89.504 7.40329C91.4796 9.31195 93.0506 11.5832 94.127 14.0868C95.2034 16.5905 95.7641 19.2773 95.7768 21.9933V34.9652C95.762 37.6798 95.1997 40.3649 94.1224 42.8667C93.045 45.3685 91.4736 47.6379 89.4982 49.5449C87.5229 51.4518 85.1823 52.959 82.6105 53.9799C80.0387 55.0009 77.2863 55.5157 74.5108 55.4948H49.1053V11.0378C49.211 8.4223 50.369 5.95361 52.3271 4.16932C54.2852 2.38503 56.8848 1.42966 59.5597 1.51128V1.44777ZM84.673 21.9933C84.673 15.8804 80.1439 10.879 74.5108 10.879H60.2253V46.1112H74.5108C80.1439 46.1112 84.673 41.078 84.673 34.9969V21.9933ZM27.401 1.41602H0.242188V10.8155H15.0634V55.463H26.1672V10.8155H41.9463V1.41602H27.401Z" fill="#344B61"/>
<path d="M59.8099 1.41456H74.7773C77.5527 1.39574 80.3047 1.91258 82.8757 2.93549C85.4466 3.9584 87.786 5.46728 89.7599 7.37574C91.7338 9.28419 93.3033 11.5547 94.3787 14.0573C95.4542 16.5599 96.0143 19.2454 96.027 21.96V34.932C96.0121 37.6452 95.4505 40.329 94.3741 42.8298C93.2977 45.3306 91.7278 47.5992 89.7542 49.506C87.7805 51.4128 85.4418 52.9202 82.8719 53.9422C80.302 54.9641 77.5514 55.4804 74.7773 55.4616H49.3555V11.0046C49.4612 8.38909 50.6192 5.92039 52.5773 4.1361C54.5354 2.35181 57.135 1.39645 59.8099 1.47807V1.41456ZM84.9232 21.96C84.9232 15.8472 80.3941 10.8458 74.7773 10.8458H60.4755V46.078H74.7773C80.3941 46.078 84.9232 41.0448 84.9232 34.9637V21.96ZM137.731 39.076C145.734 36.742 151.367 30.5498 151.367 21.8171V19.8166C151.367 8.46417 141.806 1.46219 130.101 1.46219H115.134C112.461 1.38065 109.863 2.33651 107.907 4.12121C105.952 5.90592 104.797 8.37462 104.696 10.9887V55.4457H115.8V40.1715H125.069L138.77 55.4616H152.617L137.731 39.076ZM115.8 30.7721V10.814H130.101C135.734 10.814 140.247 13.6561 140.247 19.7689V21.8171C140.247 27.93 135.734 30.7721 130.101 30.7721H115.8ZM224.224 1.44631H225.587V55.4933H224.224V1.44631Z" fill="#344B61"/>
</g>
<defs>
<clipPath id="clip0_736_3115">
<rect width="571" height="55.603" fill="white"/>
</clipPath>
</defs>
</svg>
